  0
SECTION
  2
HEADER
  9
$ACADVER
  1
AC1009
  9
$INSBASE
 10
0.0
 20
0.0
 30
0.0
  9
$EXTMIN
 10
0.8395865182337729
 20
0.3474191182017137
 30
0.0
  9
$EXTMAX
 10
6.7802913068891106
 20
2.3474191182017128
 30
0.0
  9
$LIMMIN
 10
0.0
 20
0.0
  9
$LIMMAX
 10
12.0
 20
9.0
  9
$ORTHOMODE
 70
     0
  9
$REGENMODE
 70
     1
  9
$FILLMODE
 70
     1
  9
$QTEXTMODE
 70
     0
  9
$MIRRTEXT
 70
     0
  9
$DRAGMODE
 70
     2
  9
$LTSCALE
 40
1.0
  9
$OSMODE
 70
  1061
  9
$ATTMODE
 70
     1
  9
$TEXTSIZE
 40
0.2
  9
$TRACEWID
 40
0.05
  9
$TEXTSTYLE
  7
STANDARD
  9
$CLAYER
  8
0
  9
$CELTYPE
  6
BYLAYER
  9
$CECOLOR
 62
   256
  9
$DIMSCALE
 40
1.0
  9
$DIMASZ
 40
0.18
  9
$DIMEXO
 40
0.0625
  9
$DIMDLI
 40
0.38
  9
$DIMRND
 40
0.0
  9
$DIMDLE
 40
0.0
  9
$DIMEXE
 40
0.18
  9
$DIMTP
 40
0.0
  9
$DIMTM
 40
0.0
  9
$DIMTXT
 40
0.18
  9
$DIMCEN
 40
0.09
  9
$DIMTSZ
 40
0.0
  9
$DIMTOL
 70
     0
  9
$DIMLIM
 70
     0
  9
$DIMTIH
 70
     1
  9
$DIMTOH
 70
     1
  9
$DIMSE1
 70
     0
  9
$DIMSE2
 70
     0
  9
$DIMTAD
 70
     0
  9
$DIMZIN
 70
     0
  9
$DIMBLK
  1

  9
$DIMASO
 70
     1
  9
$DIMSHO
 70
     1
  9
$DIMPOST
  1

  9
$DIMAPOST
  1

  9
$DIMALT
 70
     0
  9
$DIMALTD
 70
     2
  9
$DIMALTF
 40
25.3999999999999986
  9
$DIMLFAC
 40
1.0
  9
$DIMTOFL
 70
     0
  9
$DIMTVP
 40
0.0
  9
$DIMTIX
 70
     0
  9
$DIMSOXD
 70
     0
  9
$DIMSAH
 70
     0
  9
$DIMBLK1
  1

  9
$DIMBLK2
  1

  9
$DIMSTYLE
  2
STANDARD
  9
$DIMCLRD
 70
     0
  9
$DIMCLRE
 70
     0
  9
$DIMCLRT
 70
     0
  9
$DIMTFAC
 40
1.0
  9
$DIMGAP
 40
0.09
  9
$LUNITS
 70
     2
  9
$LUPREC
 70
     4
  9
$SKETCHINC
 40
0.1
  9
$FILLETRAD
 40
0.0
  9
$AUNITS
 70
     0
  9
$AUPREC
 70
     0
  9
$MENU
  1
.
  9
$ELEVATION
 40
0.0
  9
$PELEVATION
 40
0.0
  9
$THICKNESS
 40
0.0
  9
$LIMCHECK
 70
     0
  9
$BLIPMODE
 70
     0
  9
$CHAMFERA
 40
0.0
  9
$CHAMFERB
 40
0.0
  9
$SKPOLY
 70
     0
  9
$TDCREATE
 40
2458226.7262962958775461
  9
$TDUPDATE
 40
2458226.7282060189172626
  9
$TDINDWG
 40
0.0019212963
  9
$TDUSRTIMER
 40
0.0019212963
  9
$USRTIMER
 70
     1
  9
$ANGBASE
 50
0.0
  9
$ANGDIR
 70
     0
  9
$PDMODE
 70
     0
  9
$PDSIZE
 40
0.0
  9
$PLINEWID
 40
0.0
  9
$COORDS
 70
     1
  9
$SPLFRAME
 70
     0
  9
$SPLINETYPE
 70
     6
  9
$SPLINESEGS
 70
     8
  9
$ATTDIA
 70
     1
  9
$ATTREQ
 70
     1
  9
$HANDLING
 70
     1
  9
$HANDSEED
  5
7B5
  9
$SURFTAB1
 70
     6
  9
$SURFTAB2
 70
     6
  9
$SURFTYPE
 70
     6
  9
$SURFU
 70
     6
  9
$SURFV
 70
     6
  9
$UCSNAME
  2

  9
$UCSORG
 10
0.0
 20
0.0
 30
0.0
  9
$UCSXDIR
 10
1.0
 20
0.0
 30
0.0
  9
$UCSYDIR
 10
0.0
 20
1.0
 30
0.0
  9
$PUCSNAME
  2

  9
$PUCSORG
 10
0.0
 20
0.0
 30
0.0
  9
$PUCSXDIR
 10
1.0
 20
0.0
 30
0.0
  9
$PUCSYDIR
 10
0.0
 20
1.0
 30
0.0
  9
$USERI1
 70
     0
  9
$USERI2
 70
     0
  9
$USERI3
 70
     0
  9
$USERI4
 70
     0
  9
$USERI5
 70
     0
  9
$USERR1
 40
0.0
  9
$USERR2
 40
0.0
  9
$USERR3
 40
0.0
  9
$USERR4
 40
0.0
  9
$USERR5
 40
0.0
  9
$WORLDVIEW
 70
     1
  9
$SHADEDGE
 70
     3
  9
$SHADEDIF
 70
    70
  9
$TILEMODE
 70
     1
  9
$MAXACTVP
 70
    64
  9
$PLIMCHECK
 70
     0
  9
$PEXTMIN
 10
0.0
 20
0.0
 30
0.0
  9
$PEXTMAX
 10
0.0
 20
0.0
 30
0.0
  9
$PLIMMIN
 10
0.0
 20
0.0
  9
$PLIMMAX
 10
12.0
 20
9.0
  9
$UNITMODE
 70
     0
  9
$VISRETAIN
 70
     1
  9
$PLINEGEN
 70
     0
  9
$PSLTSCALE
 70
     1
  0
ENDSEC
  0
SECTION
  2
TABLES
  0
TABLE
  2
VPORT
 70
     1
  0
VPORT
  2
*ACTIVE
 70
     0
 10
0.0
 20
0.0
 11
1.0
 21
1.0
 12
2.5380622504313868
 22
0.9495706656988147
 13
0.0
 23
0.0
 14
0.5
 24
0.5
 15
0.5
 25
0.5
 16
0.0
 26
0.0
 36
1.0
 17
0.0
 27
0.0
 37
0.0
 40
4.2109141134213237
 41
2.2927120669056151
 42
50.0
 43
0.0
 44
0.0
 50
0.0
 51
0.0
 71
     0
 72
  1000
 73
     1
 74
     3
 75
     0
 76
     1
 77
     0
 78
     0
  0
ENDTAB
  0
TABLE
  2
LTYPE
 70
     1
  0
LTYPE
  2
CONTINUOUS
 70
     0
  3
Solid line
 72
    65
 73
     0
 40
0.0
  0
ENDTAB
  0
TABLE
  2
LAYER
 70
     2
  0
LAYER
  2
0
 70
     0
 62
     7
  6
CONTINUOUS
  0
LAYER
  2
TRIANGLES
 70
     0
 62
     7
  6
CONTINUOUS
  0
ENDTAB
  0
TABLE
  2
STYLE
 70
     2
  0
STYLE
  2
STANDARD
 70
     0
 40
0.0
 41
1.0
 50
0.0
 71
     0
 42
0.2
  3
txt
  4

  0
STYLE
  2
ANNOTATIVE
 70
     0
 40
0.0
 41
1.0
 50
0.0
 71
     0
 42
0.2
  3
txt
  4

  0
ENDTAB
  0
TABLE
  2
VIEW
 70
     0
  0
ENDTAB
  0
TABLE
  2
UCS
 70
     0
  0
ENDTAB
  0
TABLE
  2
APPID
 70
     8
  0
APPID
  2
ACAD
 70
     0
  0
APPID
  2
ACADANNOPO
 70
     0
  0
APPID
  2
ACADANNOTATIVE
 70
     0
  0
APPID
  2
ACAD_DSTYLE_DIMJAG
 70
     0
  0
APPID
  2
ACAD_DSTYLE_DIMTALN
 70
     0
  0
APPID
  2
ACAD_MLEADERVER
 70
     0
  0
APPID
  2
ACAD_NAV_VCDISPLAY
 70
     0
  0
APPID
  2
ACAD_PSEXT
 70
     0
  0
ENDTAB
  0
TABLE
  2
DIMSTYLE
 70
     2
  0
DIMSTYLE
  2
STANDARD
 70
     0
  3

  4

  5

  6

  7

 40
1.0
 41
0.18
 42
0.0625
 43
0.38
 44
0.18
 45
0.0
 46
0.0
 47
0.0
 48
0.0
140
0.18
141
0.09
142
0.0
143
25.3999999999999986
144
1.0
145
0.0
146
1.0
147
0.09
 71
     0
 72
     0
 73
     1
 74
     1
 75
     0
 76
     0
 77
     0
 78
     0
170
     0
171
     2
172
     0
173
     0
174
     0
175
     0
176
     0
177
     0
178
     0
  0
DIMSTYLE
  2
ANNOTATIVE
 70
     0
  3

  4

  5

  6

  7

 40
0.0
 41
0.18
 42
0.0625
 43
0.38
 44
0.18
 45
0.0
 46
0.0
 47
0.0
 48
0.0
140
0.18
141
0.09
142
0.0
143
25.3999999999999986
144
1.0
145
0.0
146
1.0
147
0.09
 71
     0
 72
     0
 73
     1
 74
     1
 75
     0
 76
     0
 77
     0
 78
     0
170
     0
171
     2
172
     0
173
     0
174
     0
175
     0
176
     0
177
     0
178
     0
  0
ENDTAB
  0
ENDSEC
  0
SECTION
  2
BLOCKS
  0
BLOCK
  8
0
  2
$MODEL_SPACE
 70
     0
 10
0.0
 20
0.0
 30
0.0
  3
$MODEL_SPACE
  1

  0
ENDBLK
  5
21
  8
0
  0
BLOCK
 67
     1
  8
0
  2
$PAPER_SPACE
 70
     0
 10
0.0
 20
0.0
 30
0.0
  3
$PAPER_SPACE
  1

  0
ENDBLK
  5
5B
 67
     1
  8
0
  0
ENDSEC
  0
SECTION
  2
ENTITIES
  0
POLYLINE
  5
23C
  8
0
 62
   177
 66
     1
 10
0.0
 20
0.0
 30
0.0
  0
VERTEX
  5
23D
  8
0
 62
   177
 10
1.7686008700816349
 20
1.317839977650318
 30
0.0
  0
VERTEX
  5
23E
  8
0
 62
   177
 10
1.7686133700392339
 20
1.0028371998725309
 30
0.0
  0
SEQEND
  5
23F
  8
0
 62
   177
  0
POLYLINE
  5
240
  8
0
 62
   177
 66
     1
 10
0.0
 20
0.0
 30
0.0
  0
VERTEX
  5
241
  8
0
 62
   177
 10
1.7686008700816349
 20
1.3178469220947631
 30
0.0
  0
VERTEX
  5
242
  8
0
 62
   177
 10
1.4965467034361311
 20
1.4749441443536391
 30
0.0
  0
SEQEND
  5
243
  8
0
 62
   177
  0
POLYLINE
  5
244
  8
0
 62
   177
 66
     1
 10
0.0
 20
0.0
 30
0.0
  0
VERTEX
  5
245
  8
0
 62
   177
 10
1.903909203412731
 20
1.3010885887431971
 30
0.0
  0
VERTEX
  5
246
  8
0
 10
1.903909203412731
 20
1.3010885887431971
 30
0.0
  0
SEQEND
  5
247
  8
0
 62
   177
  0
POLYLINE
  5
248
  8
0
 62
   177
 66
     1
 10
0.0
 20
0.0
 30
0.0
  0
VERTEX
  5
249
  8
0
 62
   177
 10
1.836173092319598
 20
1.434660810974548
 30
0.0
  0
VERTEX
  5
24A
  8
0
 62
   177
 10
2.108077259007417
 20
1.5916094220490109
 30
0.0
  0
SEQEND
  5
24B
  8
0
 62
   177
  0
POLYLINE
  5
24C
  8
0
 62
   177
 66
     1
 10
0.0
 20
0.0
 30
0.0
  0
VERTEX
  5
24D
  8
0
 62
   177
 10
1.8361730923196271
 20
1.4347566443078841
 30
0.0
  0
VERTEX
  5
24E
  8
0
 62
   177
 10
1.563793925674098
 20
1.591969107728906
 30
0.0
  0
SEQEND
  5
24F
  8
0
 62
   177
  0
POLYLINE
  5
250
  8
0
 62
   177
 66
     1
 10
0.0
 20
0.0
 30
0.0
  0
VERTEX
  5
251
  8
0
 62
   177
 10
1.9380883700818721
 20
1.319548310960807
 30
0.0
  0
VERTEX
  5
252
  8
0
 10
1.9380883700818721
 20
1.319548310960807
 30
0.0
  0
SEQEND
  5
253
  8
0
 62
   177
  0
POLYLINE
  5
254
  8
0
 62
   177
 66
     1
 10
0.0
 20
0.0
 30
0.0
  0
VERTEX
  5
255
  8
0
 62
   177
 10
1.903582814525997
 20
1.317188588743248
 30
0.0
  0
VERTEX
  5
256
  8
0
 62
   177
 10
1.9035828144837059
 20
1.0031427554099079
 30
0.0
  0
SEQEND
  5
257
  8
0
 62
   177
  0
POLYLINE
  5
258
  8
0
 62
   177
 66
     1
 10
0.0
 20
0.0
 30
0.0
  0
VERTEX
  5
259
  8
0
 62
   177
 10
1.839617536764294
 20
1.4366135887518541
 30
0.0
  0
VERTEX
  5
25A
  8
0
 10
1.839617536764294
 20
1.4366135887518541
 30
0.0
  0
SEQEND
  5
25B
  8
0
 62
   177
  0
POLYLINE
  5
25C
  8
0
 62
   177
 66
     1
 10
0.0
 20
0.0
 30
0.0
  0
VERTEX
  5
25D
  8
0
 62
   177
 10
1.9033800367482601
 20
1.3175816442988271
 30
0.0
  0
VERTEX
  5
25E
  8
0
 62
   177
 10
2.175677258991684
 20
1.474781644262146
 30
0.0
  0
SEQEND
  5
25F
  8
0
 62
   177
  0
POLYLINE
  5
260
  8
0
 62
   177
 66
     1
 10
0.0
 20
0.0
 30
0.0
  0
VERTEX
  5
261
  8
0
 62
   177
 10
1.7682203145238169
 20
1.300994144317029
 30
0.0
  0
VERTEX
  5
262
  8
0
 10
1.7682203145238169
 20
1.300994144317029
 30
0.0
  0
SEQEND
  5
263
  8
0
 62
   177
  0
POLYLINE
  8
0
  5
2CF
  62
177
  66
     1
 10
0.000000
 20
0.000000
 30
0.000000
  70
     8
  0
VERTEX
  8
0
  5
2D0
 10
1.76845
 20
1.00265
 30
0.000000
  70
    32
  0
VERTEX
  8
0
  5
2D1
 10
1.76844
 20
1.00193
 30
0.000000
  70
    32
  0
VERTEX
  8
0
  5
2D2
 10
1.76841
 20
1.00120
 30
0.000000
  70
    32
  0
VERTEX
  8
0
  5
2D3
 10
1.76837
 20
1.00048
 30
0.000000
  70
    32
  0
VERTEX
  8
0
  5
2D4
 10
1.76831
 20
0.999769
 30
0.000000
  70
    32
  0
VERTEX
  8
0
  5
2D5
 10
1.76823
 20
0.999058
 30
0.000000
  70
    32
  0
VERTEX
  8
0
  5
2D6
 10
1.76814
 20
0.998352
 30
0.000000
  70
    32
  0
VERTEX
  8
0
  5
2D7
 10
1.76804
 20
0.997649
 30
0.000000
  70
    32
  0
VERTEX
  8
0
  5
2D8
 10
1.76793
 20
0.996951
 30
0.000000
  70
    32
  0
VERTEX
  8
0
  5
2D9
 10
1.76779
 20
0.996256
 30
0.000000
  70
    32
  0
VERTEX
  8
0
  5
2DA
 10
1.76765
 20
0.995565
 30
0.000000
  70
    32
  0
VERTEX
  8
0
  5
2DB
 10
1.76749
 20
0.994878
 30
0.000000
  70
    32
  0
VERTEX
  8
0
  5
2DC
 10
1.76732
 20
0.994194
 30
0.000000
  70
    32
  0
VERTEX
  8
0
  5
2DD
 10
1.76714
 20
0.993513
 30
0.000000
  70
    32
  0
VERTEX
  8
0
  5
2DE
 10
1.76695
 20
0.992836
 30
0.000000
  70
    32
  0
VERTEX
  8
0
  5
2DF
 10
1.76674
 20
0.992162
 30
0.000000
  70
    32
  0
VERTEX
  8
0
  5
2E0
 10
1.76652
 20
0.991491
 30
0.000000
  70
    32
  0
VERTEX
  8
0
  5
2E1
 10
1.76629
 20
0.990824
 30
0.000000
  70
    32
  0
VERTEX
  8
0
  5
2E2
 10
1.76606
 20
0.990159
 30
0.000000
  70
    32
  0
VERTEX
  8
0
  5
2E3
 10
1.76580
 20
0.989497
 30
0.000000
  70
    32
  0
VERTEX
  8
0
  5
2E4
 10
1.76554
 20
0.988837
 30
0.000000
  70
    32
  0
VERTEX
  8
0
  5
2E5
 10
1.76527
 20
0.988180
 30
0.000000
  70
    32
  0
VERTEX
  8
0
  5
2E6
 10
1.76499
 20
0.987526
 30
0.000000
  70
    32
  0
VERTEX
  8
0
  5
2E7
 10
1.76470
 20
0.986874
 30
0.000000
  70
    32
  0
VERTEX
  8
0
  5
2E8
 10
1.76441
 20
0.986225
 30
0.000000
  70
    32
  0
VERTEX
  8
0
  5
2E9
 10
1.76410
 20
0.985578
 30
0.000000
  70
    32
  0
VERTEX
  8
0
  5
2EA
 10
1.76378
 20
0.984933
 30
0.000000
  70
    32
  0
VERTEX
  8
0
  5
2EB
 10
1.76346
 20
0.984289
 30
0.000000
  70
    32
  0
VERTEX
  8
0
  5
2EC
 10
1.76313
 20
0.983648
 30
0.000000
  70
    32
  0
VERTEX
  8
0
  5
2ED
 10
1.76279
 20
0.983009
 30
0.000000
  70
    32
  0
VERTEX
  8
0
  5
2EE
 10
1.76245
 20
0.982371
 30
0.000000
  70
    32
  0
VERTEX
  8
0
  5
2EF
 10
1.76209
 20
0.981735
 30
0.000000
  70
    32
  0
VERTEX
  8
0
  5
2F0
 10
1.76173
 20
0.981100
 30
0.000000
  70
    32
  0
VERTEX
  8
0
  5
2F1
 10
1.76137
 20
0.980467
 30
0.000000
  70
    32
  0
VERTEX
  8
0
  5
2F2
 10
1.76100
 20
0.979836
 30
0.000000
  70
    32
  0
VERTEX
  8
0
  5
2F3
 10
1.76062
 20
0.979205
 30
0.000000
  70
    32
  0
VERTEX
  8
0
  5
2F4
 10
1.76024
 20
0.978576
 30
0.000000
  70
    32
  0
VERTEX
  8
0
  5
2F5
 10
1.75985
 20
0.977947
 30
0.000000
  70
    32
  0
VERTEX
  8
0
  5
2F6
 10
1.75946
 20
0.977320
 30
0.000000
  70
    32
  0
VERTEX
  8
0
  5
2F7
 10
1.75906
 20
0.976693
 30
0.000000
  70
    32
  0
VERTEX
  8
0
  5
2F8
 10
1.75867
 20
0.976067
 30
0.000000
  70
    32
  0
VERTEX
  8
0
  5
2F9
 10
1.75826
 20
0.975442
 30
0.000000
  70
    32
  0
VERTEX
  8
0
  5
2FA
 10
1.75786
 20
0.974817
 30
0.000000
  70
    32
  0
VERTEX
  8
0
  5
2FB
 10
1.75745
 20
0.974193
 30
0.000000
  70
    32
  0
VERTEX
  8
0
  5
2FC
 10
1.75703
 20
0.973569
 30
0.000000
  70
    32
  0
VERTEX
  8
0
  5
2FD
 10
1.75662
 20
0.972945
 30
0.000000
  70
    32
  0
VERTEX
  8
0
  5
2FE
 10
1.75620
 20
0.972321
 30
0.000000
  70
    32
  0
VERTEX
  8
0
  5
2FF
 10
1.75578
 20
0.971698
 30
0.000000
  70
    32
  0
VERTEX
  8
0
  5
300
 10
1.75536
 20
0.971074
 30
0.000000
  70
    32
  0
VERTEX
  8
0
  5
301
 10
1.75494
 20
0.970450
 30
0.000000
  70
    32
  0
VERTEX
  8
0
  5
302
 10
1.75452
 20
0.969826
 30
0.000000
  70
    32
  0
VERTEX
  8
0
  5
303
 10
1.75409
 20
0.969202
 30
0.000000
  70
    32
  0
VERTEX
  8
0
  5
304
 10
1.75367
 20
0.968577
 30
0.000000
  70
    32
  0
VERTEX
  8
0
  5
305
 10
1.75325
 20
0.967951
 30
0.000000
  70
    32
  0
VERTEX
  8
0
  5
306
 10
1.75283
 20
0.967325
 30
0.000000
  70
    32
  0
VERTEX
  8
0
  5
307
 10
1.75240
 20
0.966698
 30
0.000000
  70
    32
  0
VERTEX
  8
0
  5
308
 10
1.75198
 20
0.966071
 30
0.000000
  70
    32
  0
VERTEX
  8
0
  5
309
 10
1.75156
 20
0.965442
 30
0.000000
  70
    32
  0
VERTEX
  8
0
  5
30A
 10
1.75115
 20
0.964812
 30
0.000000
  70
    32
  0
VERTEX
  8
0
  5
30B
 10
1.75073
 20
0.964181
 30
0.000000
  70
    32
  0
VERTEX
  8
0
  5
30C
 10
1.75032
 20
0.963549
 30
0.000000
  70
    32
  0
VERTEX
  8
0
  5
30D
 10
1.74990
 20
0.962915
 30
0.000000
  70
    32
  0
VERTEX
  8
0
  5
30E
 10
1.74950
 20
0.962280
 30
0.000000
  70
    32
  0
VERTEX
  8
0
  5
30F
 10
1.74909
 20
0.961644
 30
0.000000
  70
    32
  0
VERTEX
  8
0
  5
310
 10
1.74869
 20
0.961006
 30
0.000000
  70
    32
  0
VERTEX
  8
0
  5
311
 10
1.74829
 20
0.960366
 30
0.000000
  70
    32
  0
VERTEX
  8
0
  5
312
 10
1.74790
 20
0.959724
 30
0.000000
  70
    32
  0
VERTEX
  8
0
  5
313
 10
1.74751
 20
0.959080
 30
0.000000
  70
    32
  0
VERTEX
  8
0
  5
314
 10
1.74712
 20
0.958434
 30
0.000000
  70
    32
  0
VERTEX
  8
0
  5
315
 10
1.74674
 20
0.957786
 30
0.000000
  70
    32
  0
VERTEX
  8
0
  5
316
 10
1.74637
 20
0.957136
 30
0.000000
  70
    32
  0
VERTEX
  8
0
  5
317
 10
1.74600
 20
0.956483
 30
0.000000
  70
    32
  0
VERTEX
  8
0
  5
318
 10
1.74564
 20
0.955828
 30
0.000000
  70
    32
  0
VERTEX
  8
0
  5
319
 10
1.74528
 20
0.955171
 30
0.000000
  70
    32
  0
VERTEX
  8
0
  5
31A
 10
1.74494
 20
0.954511
 30
0.000000
  70
    32
  0
VERTEX
  8
0
  5
31B
 10
1.74459
 20
0.953848
 30
0.000000
  70
    32
  0
VERTEX
  8
0
  5
31C
 10
1.74426
 20
0.953182
 30
0.000000
  70
    32
  0
VERTEX
  8
0
  5
31D
 10
1.74393
 20
0.952513
 30
0.000000
  70
    32
  0
VERTEX
  8
0
  5
31E
 10
1.74361
 20
0.951841
 30
0.000000
  70
    32
  0
VERTEX
  8
0
  5
31F
 10
1.74330
 20
0.951166
 30
0.000000
  70
    32
  0
VERTEX
  8
0
  5
320
 10
1.74300
 20
0.950488
 30
0.000000
  70
    32
  0
VERTEX
  8
0
  5
321
 10
1.74270
 20
0.949806
 30
0.000000
  70
    32
  0
VERTEX
  8
0
  5
322
 10
1.74242
 20
0.949121
 30
0.000000
  70
    32
  0
VERTEX
  8
0
  5
323
 10
1.74214
 20
0.948433
 30
0.000000
  70
    32
  0
VERTEX
  8
0
  5
324
 10
1.74188
 20
0.947741
 30
0.000000
  70
    32
  0
VERTEX
  8
0
  5
325
 10
1.74162
 20
0.947045
 30
0.000000
  70
    32
  0
VERTEX
  8
0
  5
326
 10
1.74138
 20
0.946345
 30
0.000000
  70
    32
  0
VERTEX
  8
0
  5
327
 10
1.74114
 20
0.945641
 30
0.000000
  70
    32
  0
VERTEX
  8
0
  5
328
 10
1.74092
 20
0.944933
 30
0.000000
  70
    32
  0
VERTEX
  8
0
  5
329
 10
1.74071
 20
0.944222
 30
0.000000
  70
    32
  0
VERTEX
  8
0
  5
32A
 10
1.74051
 20
0.943505
 30
0.000000
  70
    32
  0
VERTEX
  8
0
  5
32B
 10
1.74032
 20
0.942785
 30
0.000000
  70
    32
  0
VERTEX
  8
0
  5
32C
 10
1.74014
 20
0.942060
 30
0.000000
  70
    32
  0
VERTEX
  8
0
  5
32D
 10
1.73998
 20
0.941331
 30
0.000000
  70
    32
  0
VERTEX
  8
0
  5
32E
 10
1.73983
 20
0.940597
 30
0.000000
  70
    32
  0
VERTEX
  8
0
  5
32F
 10
1.73969
 20
0.939858
 30
0.000000
  70
    32
  0
VERTEX
  8
0
  5
330
 10
1.73957
 20
0.939114
 30
0.000000
  70
    32
  0
VERTEX
  8
0
  5
331
 10
1.73946
 20
0.938366
 30
0.000000
  70
    32
  0
VERTEX
  8
0
  5
332
 10
1.73936
 20
0.937612
 30
0.000000
  70
    32
  0
VERTEX
  8
0
  5
333
 10
1.73928
 20
0.936853
 30
0.000000
  70
    32
  0
VERTEX
  8
0
  5
334
 10
1.73921
 20
0.936089
 30
0.000000
  70
    32
  0
VERTEX
  8
0
  5
335
 10
1.73916
 20
0.935320
 30
0.000000
  70
    32
  0
VERTEX
  8
0
  5
336
 10
1.73912
 20
0.934545
 30
0.000000
  70
    32
  0
VERTEX
  8
0
  5
337
 10
1.73910
 20
0.933765
 30
0.000000
  70
    32
  0
VERTEX
  8
0
  5
338
 10
1.73910
 20
0.932789
 30
0.000000
  70
    32
  0
VERTEX
  8
0
  5
339
 10
1.73912
 20
0.931243
 30
0.000000
  70
    32
  0
VERTEX
  8
0
  5
33A
 10
1.73916
 20
0.929703
 30
0.000000
  70
    32
  0
VERTEX
  8
0
  5
33B
 10
1.73923
 20
0.928170
 30
0.000000
  70
    32
  0
VERTEX
  8
0
  5
33C
 10
1.73932
 20
0.926642
 30
0.000000
  70
    32
  0
VERTEX
  8
0
  5
33D
 10
1.73943
 20
0.925121
 30
0.000000
  70
    32
  0
VERTEX
  8
0
  5
33E
 10
1.73957
 20
0.923607
 30
0.000000
  70
    32
  0
VERTEX
  8
0
  5
33F
 10
1.73973
 20
0.922099
 30
0.000000
  70
    32
  0
VERTEX
  8
0
  5
340
 10
1.73991
 20
0.920598
 30
0.000000
  70
    32
  0
VERTEX
  8
0
  5
341
 10
1.74012
 20
0.919105
 30
0.000000
  70
    32
  0
VERTEX
  8
0
  5
342
 10
1.74034
 20
0.917619
 30
0.000000
  70
    32
  0
VERTEX
  8
0
  5
343
 10
1.74059
 20
0.916140
 30
0.000000
  70
    32
  0
VERTEX
  8
0
  5
344
 10
1.74087
 20
0.914669
 30
0.000000
  70
    32
  0
VERTEX
  8
0
  5
345
 10
1.74116
 20
0.913206
 30
0.000000
  70
    32
  0
VERTEX
  8
0
  5
346
 10
1.74148
 20
0.911751
 30
0.000000
  70
    32
  0
VERTEX
  8
0
  5
347
 10
1.74182
 20
0.910304
 30
0.000000
  70
    32
  0
VERTEX
  8
0
  5
348
 10
1.74218
 20
0.908865
 30
0.000000
  70
    32
  0
VERTEX
  8
0
  5
349
 10
1.74256
 20
0.907435
 30
0.000000
  70
    32
  0
VERTEX
  8
0
  5
34A
 10
1.74296
 20
0.906014
 30
0.000000
  70
    32
  0
VERTEX
  8
0
  5
34B
 10
1.74338
 20
0.904601
 30
0.000000
  70
    32
  0
VERTEX
  8
0
  5
34C
 10
1.74382
 20
0.903198
 30
0.000000
  70
    32
  0
VERTEX
  8
0
  5
34D
 10
1.74429
 20
0.901804
 30
0.000000
  70
    32
  0
VERTEX
  8
0
  5
34E
 10
1.74477
 20
0.900420
 30
0.000000
  70
    32
  0
VERTEX
  8
0
  5
34F
 10
1.74528
 20
0.899045
 30
0.000000
  70
    32
  0
VERTEX
  8
0
  5
350
 10
1.74580
 20
0.897680
 30
0.000000
  70
    32
  0
VERTEX
  8
0
  5
351
 10
1.74635
 20
0.896325
 30
0.000000
  70
    32
  0
VERTEX
  8
0
  5
352
 10
1.74691
 20
0.894980
 30
0.000000
  70
    32
  0
VERTEX
  8
0
  5
353
 10
1.74750
 20
0.893645
 30
0.000000
  70
    32
  0
VERTEX
  8
0
  5
354
 10
1.74810
 20
0.892321
 30
0.000000
  70
    32
  0
VERTEX
  8
0
  5
355
 10
1.74872
 20
0.891008
 30
0.000000
  70
    32
  0
VERTEX
  8
0
  5
356
 10
1.74937
 20
0.889706
 30
0.000000
  70
    32
  0
VERTEX
  8
0
  5
357
 10
1.75003
 20
0.888414
 30
0.000000
  70
    32
  0
VERTEX
  8
0
  5
358
 10
1.75070
 20
0.887134
 30
0.000000
  70
    32
  0
VERTEX
  8
0
  5
359
 10
1.75140
 20
0.885866
 30
0.000000
  70
    32
  0
VERTEX
  8
0
  5
35A
 10
1.75212
 20
0.884609
 30
0.000000
  70
    32
  0
VERTEX
  8
0
  5
35B
 10
1.75285
 20
0.883363
 30
0.000000
  70
    32
  0
VERTEX
  8
0
  5
35C
 10
1.75360
 20
0.882130
 30
0.000000
  70
    32
  0
VERTEX
  8
0
  5
35D
 10
1.75437
 20
0.880909
 30
0.000000
  70
    32
  0
VERTEX
  8
0
  5
35E
 10
1.75516
 20
0.879700
 30
0.000000
  70
    32
  0
VERTEX
  8
0
  5
35F
 10
1.75596
 20
0.878503
 30
0.000000
  70
    32
  0
VERTEX
  8
0
  5
360
 10
1.75679
 20
0.877320
 30
0.000000
  70
    32
  0
VERTEX
  8
0
  5
361
 10
1.75762
 20
0.876149
 30
0.000000
  70
    32
  0
VERTEX
  8
0
  5
362
 10
1.75848
 20
0.874991
 30
0.000000
  70
    32
  0
VERTEX
  8
0
  5
363
 10
1.75935
 20
0.873846
 30
0.000000
  70
    32
  0
VERTEX
  8
0
  5
364
 10
1.76024
 20
0.872715
 30
0.000000
  70
    32
  0
VERTEX
  8
0
  5
365
 10
1.76115
 20
0.871597
 30
0.000000
  70
    32
  0
VERTEX
  8
0
  5
366
 10
1.76207
 20
0.870493
 30
0.000000
  70
    32
  0
VERTEX
  8
0
  5
367
 10
1.76300
 20
0.869403
 30
0.000000
  70
    32
  0
VERTEX
  8
0
  5
368
 10
1.76396
 20
0.868327
 30
0.000000
  70
    32
  0
VERTEX
  8
0
  5
369
 10
1.76492
 20
0.867266
 30
0.000000
  70
    32
  0
VERTEX
  8
0
  5
36A
 10
1.76591
 20
0.866218
 30
0.000000
  70
    32
  0
VERTEX
  8
0
  5
36B
 10
1.76691
 20
0.865186
 30
0.000000
  70
    32
  0
VERTEX
  8
0
  5
36C
 10
1.76792
 20
0.864168
 30
0.000000
  70
    32
  0
VERTEX
  8
0
  5
36D
 10
1.76895
 20
0.863165
 30
0.000000
  70
    32
  0
VERTEX
  8
0
  5
36E
 10
1.76999
 20
0.862178
 30
0.000000
  70
    32
  0
VERTEX
  8
0
  5
36F
 10
1.77105
 20
0.861205
 30
0.000000
  70
    32
  0
VERTEX
  8
0
  5
370
 10
1.77212
 20
0.860249
 30
0.000000
  70
    32
  0
VERTEX
  8
0
  5
371
 10
1.77321
 20
0.859308
 30
0.000000
  70
    32
  0
VERTEX
  8
0
  5
372
 10
1.77431
 20
0.858382
 30
0.000000
  70
    32
  0
VERTEX
  8
0
  5
373
 10
1.77542
 20
0.857473
 30
0.000000
  70
    32
  0
VERTEX
  8
0
  5
374
 10
1.77655
 20
0.856580
 30
0.000000
  70
    32
  0
VERTEX
  8
0
  5
375
 10
1.77769
 20
0.855704
 30
0.000000
  70
    32
  0
VERTEX
  8
0
  5
376
 10
1.77885
 20
0.854844
 30
0.000000
  70
    32
  0
VERTEX
  8
0
  5
377
 10
1.78002
 20
0.854001
 30
0.000000
  70
    32
  0
VERTEX
  8
0
  5
378
 10
1.78120
 20
0.853175
 30
0.000000
  70
    32
  0
VERTEX
  8
0
  5
379
 10
1.78239
 20
0.852366
 30
0.000000
  70
    32
  0
VERTEX
  8
0
  5
37A
 10
1.78359
 20
0.851574
 30
0.000000
  70
    32
  0
VERTEX
  8
0
  5
37B
 10
1.78481
 20
0.850800
 30
0.000000
  70
    32
  0
VERTEX
  8
0
  5
37C
 10
1.78604
 20
0.850043
 30
0.000000
  70
    32
  0
VERTEX
  8
0
  5
37D
 10
1.78729
 20
0.849305
 30
0.000000
  70
    32
  0
VERTEX
  8
0
  5
37E
 10
1.78854
 20
0.848584
 30
0.000000
  70
    32
  0
VERTEX
  8
0
  5
37F
 10
1.78981
 20
0.847882
 30
0.000000
  70
    32
  0
VERTEX
  8
0
  5
380
 10
1.79108
 20
0.847197
 30
0.000000
  70
    32
  0
VERTEX
  8
0
  5
381
 10
1.79237
 20
0.846532
 30
0.000000
  70
    32
  0
VERTEX
  8
0
  5
382
 10
1.79367
 20
0.845885
 30
0.000000
  70
    32
  0
VERTEX
  8
0
  5
383
 10
1.79498
 20
0.845257
 30
0.000000
  70
    32
  0
VERTEX
  8
0
  5
384
 10
1.79630
 20
0.844648
 30
0.000000
  70
    32
  0
VERTEX
  8
0
  5
385
 10
1.79763
 20
0.844059
 30
0.000000
  70
    32
  0
VERTEX
  8
0
  5
386
 10
1.79898
 20
0.843489
 30
0.000000
  70
    32
  0
VERTEX
  8
0
  5
387
 10
1.80033
 20
0.842938
 30
0.000000
  70
    32
  0
VERTEX
  8
0
  5
388
 10
1.80169
 20
0.842408
 30
0.000000
  70
    32
  0
VERTEX
  8
0
  5
389
 10
1.80306
 20
0.841897
 30
0.000000
  70
    32
  0
VERTEX
  8
0
  5
38A
 10
1.80445
 20
0.841407
 30
0.000000
  70
    32
  0
VERTEX
  8
0
  5
38B
 10
1.80584
 20
0.840936
 30
0.000000
  70
    32
  0
VERTEX
  8
0
  5
38C
 10
1.80724
 20
0.840487
 30
0.000000
  70
    32
  0
VERTEX
  8
0
  5
38D
 10
1.80865
 20
0.840058
 30
0.000000
  70
    32
  0
VERTEX
  8
0
  5
38E
 10
1.81007
 20
0.839650
 30
0.000000
  70
    32
  0
VERTEX
  8
0
  5
38F
 10
1.81149
 20
0.839263
 30
0.000000
  70
    32
  0
VERTEX
  8
0
  5
390
 10
1.81293
 20
0.838897
 30
0.000000
  70
    32
  0
VERTEX
  8
0
  5
391
 10
1.81438
 20
0.838553
 30
0.000000
  70
    32
  0
VERTEX
  8
0
  5
392
 10
1.81583
 20
0.838230
 30
0.000000
  70
    32
  0
VERTEX
  8
0
  5
393
 10
1.81729
 20
0.837929
 30
0.000000
  70
    32
  0
VERTEX
  8
0
  5
394
 10
1.81876
 20
0.837650
 30
0.000000
  70
    32
  0
VERTEX
  8
0
  5
395
 10
1.82023
 20
0.837393
 30
0.000000
  70
    32
  0
VERTEX
  8
0
  5
396
 10
1.82172
 20
0.837158
 30
0.000000
  70
    32
  0
VERTEX
  8
0
  5
397
 10
1.82321
 20
0.836946
 30
0.000000
  70
    32
  0
VERTEX
  8
0
  5
398
 10
1.82471
 20
0.836757
 30
0.000000
  70
    32
  0
VERTEX
  8
0
  5
399
 10
1.82621
 20
0.836590
 30
0.000000
  70
    32
  0
VERTEX
  8
0
  5
39A
 10
1.82773
 20
0.836447
 30
0.000000
  70
    32
  0
VERTEX
  8
0
  5
39B
 10
1.82925
 20
0.836326
 30
0.000000
  70
    32
  0
VERTEX
  8
0
  5
39C
 10
1.83077
 20
0.836229
 30
0.000000
  70
    32
  0
VERTEX
  8
0
  5
39D
 10
1.83230
 20
0.836156
 30
0.000000
  70
    32
  0
VERTEX
  8
0
  5
39E
 10
1.83384
 20
0.836106
 30
0.000000
  70
    32
  0
VERTEX
  8
0
  5
39F
 10
1.83539
 20
0.836080
 30
0.000000
  70
    32
  0
VERTEX
  8
0
  5
3A0
 10
1.83693
 20
0.836080
 30
0.000000
  70
    32
  0
VERTEX
  8
0
  5
3A1
 10
1.83848
 20
0.836106
 30
0.000000
  70
    32
  0
VERTEX
  8
0
  5
3A2
 10
1.84001
 20
0.836156
 30
0.000000
  70
    32
  0
VERTEX
  8
0
  5
3A3
 10
1.84154
 20
0.836229
 30
0.000000
  70
    32
  0
VERTEX
  8
0
  5
3A4
 10
1.84307
 20
0.836326
 30
0.000000
  70
    32
  0
VERTEX
  8
0
  5
3A5
 10
1.84459
 20
0.836446
 30
0.000000
  70
    32
  0
VERTEX
  8
0
  5
3A6
 10
1.84610
 20
0.836590
 30
0.000000
  70
    32
  0
VERTEX
  8
0
  5
3A7
 10
1.84760
 20
0.836756
 30
0.000000
  70
    32
  0
VERTEX
  8
0
  5
3A8
 10
1.84910
 20
0.836946
 30
0.000000
  70
    32
  0
VERTEX
  8
0
  5
3A9
 10
1.85059
 20
0.837158
 30
0.000000
  70
    32
  0
VERTEX
  8
0
  5
3AA
 10
1.85208
 20
0.837392
 30
0.000000
  70
    32
  0
VERTEX
  8
0
  5
3AB
 10
1.85355
 20
0.837649
 30
0.000000
  70
    32
  0
VERTEX
  8
0
  5
3AC
 10
1.85502
 20
0.837928
 30
0.000000
  70
    32
  0
VERTEX
  8
0
  5
3AD
 10
1.85648
 20
0.838228
 30
0.000000
  70
    32
  0
VERTEX
  8
0
  5
3AE
 10
1.85793
 20
0.838551
 30
0.000000
  70
    32
  0
VERTEX
  8
0
  5
3AF
 10
1.85938
 20
0.838895
 30
0.000000
  70
    32
  0
VERTEX
  8
0
  5
3B0
 10
1.86081
 20
0.839261
 30
0.000000
  70
    32
  0
VERTEX
  8
0
  5
3B1
 10
1.86224
 20
0.839647
 30
0.000000
  70
    32
  0
VERTEX
  8
0
  5
3B2
 10
1.86366
 20
0.840055
 30
0.000000
  70
    32
  0
VERTEX
  8
0
  5
3B3
 10
1.86507
 20
0.840484
 30
0.000000
  70
    32
  0
VERTEX
  8
0
  5
3B4
 10
1.86647
 20
0.840933
 30
0.000000
  70
    32
  0
VERTEX
  8
0
  5
3B5
 10
1.86786
 20
0.841403
 30
0.000000
  70
    32
  0
VERTEX
  8
0
  5
3B6
 10
1.86924
 20
0.841893
 30
0.000000
  70
    32
  0
VERTEX
  8
0
  5
3B7
 10
1.87061
 20
0.842404
 30
0.000000
  70
    32
  0
VERTEX
  8
0
  5
3B8
 10
1.87198
 20
0.842934
 30
0.000000
  70
    32
  0
VERTEX
  8
0
  5
3B9
 10
1.87333
 20
0.843484
 30
0.000000
  70
    32
  0
VERTEX
  8
0
  5
3BA
 10
1.87467
 20
0.844054
 30
0.000000
  70
    32
  0
VERTEX
  8
0
  5
3BB
 10
1.87600
 20
0.844643
 30
0.000000
  70
    32
  0
VERTEX
  8
0
  5
3BC
 10
1.87732
 20
0.845251
 30
0.000000
  70
    32
  0
VERTEX
  8
0
  5
3BD
 10
1.87863
 20
0.845879
 30
0.000000
  70
    32
  0
VERTEX
  8
0
  5
3BE
 10
1.87993
 20
0.846525
 30
0.000000
  70
    32
  0
VERTEX
  8
0
  5
3BF
 10
1.88122
 20
0.847191
 30
0.000000
  70
    32
  0
VERTEX
  8
0
  5
3C0
 10
1.88250
 20
0.847874
 30
0.000000
  70
    32
  0
VERTEX
  8
0
  5
3C1
 10
1.88376
 20
0.848577
 30
0.000000
  70
    32
  0
VERTEX
  8
0
  5
3C2
 10
1.88502
 20
0.849297
 30
0.000000
  70
    32
  0
VERTEX
  8
0
  5
3C3
 10
1.88626
 20
0.850035
 30
0.000000
  70
    32
  0
VERTEX
  8
0
  5
3C4
 10
1.88749
 20
0.850791
 30
0.000000
  70
    32
  0
VERTEX
  8
0
  5
3C5
 10
1.88871
 20
0.851565
 30
0.000000
  70
    32
  0
VERTEX
  8
0
  5
3C6
 10
1.88991
 20
0.852356
 30
0.000000
  70
    32
  0
VERTEX
  8
0
  5
3C7
 10
1.89110
 20
0.853165
 30
0.000000
  70
    32
  0
VERTEX
  8
0
  5
3C8
 10
1.89228
 20
0.853991
 30
0.000000
  70
    32
  0
VERTEX
  8
0
  5
3C9
 10
1.89345
 20
0.854834
 30
0.000000
  70
    32
  0
VERTEX
  8
0
  5
3CA
 10
1.89461
 20
0.855693
 30
0.000000
  70
    32
  0
VERTEX
  8
0
  5
3CB
 10
1.89575
 20
0.856569
 30
0.000000
  70
    32
  0
VERTEX
  8
0
  5
3CC
 10
1.89687
 20
0.857462
 30
0.000000
  70
    32
  0
VERTEX
  8
0
  5
3CD
 10
1.89799
 20
0.858370
 30
0.000000
  70
    32
  0
VERTEX
  8
0
  5
3CE
 10
1.89909
 20
0.859295
 30
0.000000
  70
    32
  0
VERTEX
  8
0
  5
3CF
 10
1.90017
 20
0.860236
 30
0.000000
  70
    32
  0
VERTEX
  8
0
  5
3D0
 10
1.90125
 20
0.861192
 30
0.000000
  70
    32
  0
VERTEX
  8
0
  5
3D1
 10
1.90230
 20
0.862164
 30
0.000000
  70
    32
  0
VERTEX
  8
0
  5
3D2
 10
1.90335
 20
0.863151
 30
0.000000
  70
    32
  0
VERTEX
  8
0
  5
3D3
 10
1.90438
 20
0.864154
 30
0.000000
  70
    32
  0
VERTEX
  8
0
  5
3D4
 10
1.90539
 20
0.865171
 30
0.000000
  70
    32
  0
VERTEX
  8
0
  5
3D5
 10
1.90639
 20
0.866204
 30
0.000000
  70
    32
  0
VERTEX
  8
0
  5
3D6
 10
1.90737
 20
0.867251
 30
0.000000
  70
    32
  0
VERTEX
  8
0
  5
3D7
 10
1.90834
 20
0.868312
 30
0.000000
  70
    32
  0
VERTEX
  8
0
  5
3D8
 10
1.90929
 20
0.869388
 30
0.000000
  70
    32
  0
VERTEX
  8
0
  5
3D9
 10
1.91023
 20
0.870477
 30
0.000000
  70
    32
  0
VERTEX
  8
0
  5
3DA
 10
1.91115
 20
0.871581
 30
0.000000
  70
    32
  0
VERTEX
  8
0
  5
3DB
 10
1.91205
 20
0.872698
 30
0.000000
  70
    32
  0
VERTEX
  8
0
  5
3DC
 10
1.91294
 20
0.873829
 30
0.000000
  70
    32
  0
VERTEX
  8
0
  5
3DD
 10
1.91381
 20
0.874974
 30
0.000000
  70
    32
  0
VERTEX
  8
0
  5
3DE
 10
1.91467
 20
0.876131
 30
0.000000
  70
    32
  0
VERTEX
  8
0
  5
3DF
 10
1.91551
 20
0.877302
 30
0.000000
  70
    32
  0
VERTEX
  8
0
  5
3E0
 10
1.91633
 20
0.878485
 30
0.000000
  70
    32
  0
VERTEX
  8
0
  5
3E1
 10
1.91713
 20
0.879682
 30
0.000000
  70
    32
  0
VERTEX
  8
0
  5
3E2
 10
1.91792
 20
0.880890
 30
0.000000
  70
    32
  0
VERTEX
  8
0
  5
3E3
 10
1.91869
 20
0.882111
 30
0.000000
  70
    32
  0
VERTEX
  8
0
  5
3E4
 10
1.91944
 20
0.883344
 30
0.000000
  70
    32
  0
VERTEX
  8
0
  5
3E5
 10
1.92017
 20
0.884590
 30
0.000000
  70
    32
  0
VERTEX
  8
0
  5
3E6
 10
1.92089
 20
0.885846
 30
0.000000
  70
    32
  0
VERTEX
  8
0
  5
3E7
 10
1.92158
 20
0.887115
 30
0.000000
  70
    32
  0
VERTEX
  8
0
  5
3E8
 10
1.92226
 20
0.888395
 30
0.000000
  70
    32
  0
VERTEX
  8
0
  5
3E9
 10
1.92292
 20
0.889686
 30
0.000000
  70
    32
  0
VERTEX
  8
0
  5
3EA
 10
1.92356
 20
0.890988
 30
0.000000
  70
    32
  0
VERTEX
  8
0
  5
3EB
 10
1.92419
 20
0.892302
 30
0.000000
  70
    32
  0
VERTEX
  8
0
  5
3EC
 10
1.92479
 20
0.893626
 30
0.000000
  70
    32
  0
VERTEX
  8
0
  5
3ED
 10
1.92537
 20
0.894960
 30
0.000000
  70
    32
  0
VERTEX
  8
0
  5
3EE
 10
1.92594
 20
0.896305
 30
0.000000
  70
    32
  0
VERTEX
  8
0
  5
3EF
 10
1.92648
 20
0.897660
 30
0.000000
  70
    32
  0
VERTEX
  8
0
  5
3F0
 10
1.92701
 20
0.899025
 30
0.000000
  70
    32
  0
VERTEX
  8
0
  5
3F1
 10
1.92751
 20
0.900400
 30
0.000000
  70
    32
  0
VERTEX
  8
0
  5
3F2
 10
1.92799
 20
0.901784
 30
0.000000
  70
    32
  0
VERTEX
  8
0
  5
3F3
 10
1.92846
 20
0.903178
 30
0.000000
  70
    32
  0
VERTEX
  8
0
  5
3F4
 10
1.92890
 20
0.904582
 30
0.000000
  70
    32
  0
VERTEX
  8
0
  5
3F5
 10
1.92932
 20
0.905994
 30
0.000000
  70
    32
  0
VERTEX
  8
0
  5
3F6
 10
1.92972
 20
0.907415
 30
0.000000
  70
    32
  0
VERTEX
  8
0
  5
3F7
 10
1.93010
 20
0.908846
 30
0.000000
  70
    32
  0
VERTEX
  8
0
  5
3F8
 10
1.93046
 20
0.910284
 30
0.000000
  70
    32
  0
VERTEX
  8
0
  5
3F9
 10
1.93080
 20
0.911731
 30
0.000000
  70
    32
  0
VERTEX
  8
0
  5
3FA
 10
1.93112
 20
0.913187
 30
0.000000
  70
    32
  0
VERTEX
  8
0
  5
3FB
 10
1.93141
 20
0.914650
 30
0.000000
  70
    32
  0
VERTEX
  8
0
  5
3FC
 10
1.93168
 20
0.916122
 30
0.000000
  70
    32
  0
VERTEX
  8
0
  5
3FD
 10
1.93193
 20
0.917601
 30
0.000000
  70
    32
  0
VERTEX
  8
0
  5
3FE
 10
1.93216
 20
0.919087
 30
0.000000
  70
    32
  0
VERTEX
  8
0
  5
3FF
 10
1.93236
 20
0.920581
 30
0.000000
  70
    32
  0
VERTEX
  8
0
  5
400
 10
1.93254
 20
0.922082
 30
0.000000
  70
    32
  0
VERTEX
  8
0
  5
401
 10
1.93270
 20
0.923590
 30
0.000000
  70
    32
  0
VERTEX
  8
0
  5
402
 10
1.93284
 20
0.925105
 30
0.000000
  70
    32
  0
VERTEX
  8
0
  5
403
 10
1.93295
 20
0.926626
 30
0.000000
  70
    32
  0
VERTEX
  8
0
  5
404
 10
1.93304
 20
0.928154
 30
0.000000
  70
    32
  0
VERTEX
  8
0
  5
405
 10
1.93311
 20
0.929688
 30
0.000000
  70
    32
  0
VERTEX
  8
0
  5
406
 10
1.93315
 20
0.931229
 30
0.000000
  70
    32
  0
VERTEX
  8
0
  5
407
 10
1.93316
 20
0.932775
 30
0.000000
  70
    32
  0
VERTEX
  8
0
  5
408
 10
1.93316
 20
0.933754
 30
0.000000
  70
    32
  0
VERTEX
  8
0
  5
409
 10
1.93314
 20
0.934539
 30
0.000000
  70
    32
  0
VERTEX
  8
0
  5
40A
 10
1.93310
 20
0.935318
 30
0.000000
  70
    32
  0
VERTEX
  8
0
  5
40B
 10
1.93305
 20
0.936092
 30
0.000000
  70
    32
  0
VERTEX
  8
0
  5
40C
 10
1.93298
 20
0.936860
 30
0.000000
  70
    32
  0
VERTEX
  8
0
  5
40D
 10
1.93290
 20
0.937623
 30
0.000000
  70
    32
  0
VERTEX
  8
0
  5
40E
 10
1.93281
 20
0.938380
 30
0.000000
  70
    32
  0
VERTEX
  8
0
  5
40F
 10
1.93270
 20
0.939133
 30
0.000000
  70
    32
  0
VERTEX
  8
0
  5
410
 10
1.93257
 20
0.939880
 30
0.000000
  70
    32
  0
VERTEX
  8
0
  5
411
 10
1.93244
 20
0.940623
 30
0.000000
  70
    32
  0
VERTEX
  8
0
  5
412
 10
1.93229
 20
0.941360
 30
0.000000
  70
    32
  0
VERTEX
  8
0
  5
413
 10
1.93212
 20
0.942093
 30
0.000000
  70
    32
  0
VERTEX
  8
0
  5
414
 10
1.93195
 20
0.942821
 30
0.000000
  70
    32
  0
VERTEX
  8
0
  5
415
 10
1.93176
 20
0.943545
 30
0.000000
  70
    32
  0
VERTEX
  8
0
  5
416
 10
1.93156
 20
0.944265
 30
0.000000
  70
    32
  0
VERTEX
  8
0
  5
417
 10
1.93135
 20
0.944980
 30
0.000000
  70
    32
  0
VERTEX
  8
0
  5
418
 10
1.93113
 20
0.945691
 30
0.000000
  70
    32
  0
VERTEX
  8
0
  5
419
 10
1.93089
 20
0.946398
 30
0.000000
  70
    32
  0
VERTEX
  8
0
  5
41A
 10
1.93065
 20
0.947100
 30
0.000000
  70
    32
  0
VERTEX
  8
0
  5
41B
 10
1.93040
 20
0.947799
 30
0.000000
  70
    32
  0
VERTEX
  8
0
  5
41C
 10
1.93013
 20
0.948494
 30
0.000000
  70
    32
  0
VERTEX
  8
0
  5
41D
 10
1.92986
 20
0.949186
 30
0.000000
  70
    32
  0
VERTEX
  8
0
  5
41E
 10
1.92957
 20
0.949873
 30
0.000000
  70
    32
  0
VERTEX
  8
0
  5
41F
 10
1.92928
 20
0.950557
 30
0.000000
  70
    32
  0
VERTEX
  8
0
  5
420
 10
1.92898
 20
0.951238
 30
0.000000
  70
    32
  0
VERTEX
  8
0
  5
421
 10
1.92867
 20
0.951916
 30
0.000000
  70
    32
  0
VERTEX
  8
0
  5
422
 10
1.92835
 20
0.952590
 30
0.000000
  70
    32
  0
VERTEX
  8
0
  5
423
 10
1.92802
 20
0.953261
 30
0.000000
  70
    32
  0
VERTEX
  8
0
  5
424
 10
1.92769
 20
0.953930
 30
0.000000
  70
    32
  0
VERTEX
  8
0
  5
425
 10
1.92735
 20
0.954595
 30
0.000000
  70
    32
  0
VERTEX
  8
0
  5
426
 10
1.92700
 20
0.955257
 30
0.000000
  70
    32
  0
VERTEX
  8
0
  5
427
 10
1.92665
 20
0.955917
 30
0.000000
  70
    32
  0
VERTEX
  8
0
  5
428
 10
1.92629
 20
0.956574
 30
0.000000
  70
    32
  0
VERTEX
  8
0
  5
429
 10
1.92592
 20
0.957229
 30
0.000000
  70
    32
  0
VERTEX
  8
0
  5
42A
 10
1.92555
 20
0.957882
 30
0.000000
  70
    32
  0
VERTEX
  8
0
  5
42B
 10
1.92517
 20
0.958532
 30
0.000000
  70
    32
  0
VERTEX
  8
0
  5
42C
 10
1.92478
 20
0.959179
 30
0.000000
  70
    32
  0
VERTEX
  8
0
  5
42D
 10
1.92440
 20
0.959825
 30
0.000000
  70
    32
  0
VERTEX
  8
0
  5
42E
 10
1.92400
 20
0.960469
 30
0.000000
  70
    32
  0
VERTEX
  8
0
  5
42F
 10
1.92361
 20
0.961111
 30
0.000000
  70
    32
  0
VERTEX
  8
0
  5
430
 10
1.92321
 20
0.961751
 30
0.000000
  70
    32
  0
VERTEX
  8
0
  5
431
 10
1.92280
 20
0.962389
 30
0.000000
  70
    32
  0
VERTEX
  8
0
  5
432
 10
1.92239
 20
0.963026
 30
0.000000
  70
    32
  0
VERTEX
  8
0
  5
433
 10
1.92198
 20
0.963661
 30
0.000000
  70
    32
  0
VERTEX
  8
0
  5
434
 10
1.92157
 20
0.964295
 30
0.000000
  70
    32
  0
VERTEX
  8
0
  5
435
 10
1.92115
 20
0.964928
 30
0.000000
  70
    32
  0
VERTEX
  8
0
  5
436
 10
1.92074
 20
0.965559
 30
0.000000
  70
    32
  0
VERTEX
  8
0
  5
437
 10
1.92032
 20
0.966190
 30
0.000000
  70
    32
  0
VERTEX
  8
0
  5
438
 10
1.91990
 20
0.966819
 30
0.000000
  70
    32
  0
VERTEX
  8
0
  5
439
 10
1.91947
 20
0.967448
 30
0.000000
  70
    32
  0
VERTEX
  8
0
  5
43A
 10
1.91905
 20
0.968075
 30
0.000000
  70
    32
  0
VERTEX
  8
0
  5
43B
 10
1.91863
 20
0.968702
 30
0.000000
  70
    32
  0
VERTEX
  8
0
  5
43C
 10
1.91821
 20
0.969329
 30
0.000000
  70
    32
  0
VERTEX
  8
0
  5
43D
 10
1.91778
 20
0.969955
 30
0.000000
  70
    32
  0
VERTEX
  8
0
  5
43E
 10
1.91736
 20
0.970581
 30
0.000000
  70
    32
  0
VERTEX
  8
0
  5
43F
 10
1.91694
 20
0.971206
 30
0.000000
  70
    32
  0
VERTEX
  8
0
  5
440
 10
1.91652
 20
0.971831
 30
0.000000
  70
    32
  0
VERTEX
  8
0
  5
441
 10
1.91610
 20
0.972456
 30
0.000000
  70
    32
  0
VERTEX
  8
0
  5
442
 10
1.91568
 20
0.973081
 30
0.000000
  70
    32
  0
VERTEX
  8
0
  5
443
 10
1.91526
 20
0.973707
 30
0.000000
  70
    32
  0
VERTEX
  8
0
  5
444
 10
1.91485
 20
0.974332
 30
0.000000
  70
    32
  0
VERTEX
  8
0
  5
445
 10
1.91444
 20
0.974958
 30
0.000000
  70
    32
  0
VERTEX
  8
0
  5
446
 10
1.91403
 20
0.975584
 30
0.000000
  70
    32
  0
VERTEX
  8
0
  5
447
 10
1.91363
 20
0.976211
 30
0.000000
  70
    32
  0
VERTEX
  8
0
  5
448
 10
1.91322
 20
0.976838
 30
0.000000
  70
    32
  0
VERTEX
  8
0
  5
449
 10
1.91283
 20
0.977466
 30
0.000000
  70
    32
  0
VERTEX
  8
0
  5
44A
 10
1.91243
 20
0.978095
 30
0.000000
  70
    32
  0
VERTEX
  8
0
  5
44B
 10
1.91204
 20
0.978725
 30
0.000000
  70
    32
  0
VERTEX
  8
0
  5
44C
 10
1.91166
 20
0.979356
 30
0.000000
  70
    32
  0
VERTEX
  8
0
  5
44D
 10
1.91128
 20
0.979988
 30
0.000000
  70
    32
  0
VERTEX
  8
0
  5
44E
 10
1.91091
 20
0.980622
 30
0.000000
  70
    32
  0
VERTEX
  8
0
  5
44F
 10
1.91054
 20
0.981256
 30
0.000000
  70
    32
  0
VERTEX
  8
0
  5
450
 10
1.91018
 20
0.981892
 30
0.000000
  70
    32
  0
VERTEX
  8
0
  5
451
 10
1.90982
 20
0.982530
 30
0.000000
  70
    32
  0
VERTEX
  8
0
  5
452
 10
1.90947
 20
0.983169
 30
0.000000
  70
    32
  0
VERTEX
  8
0
  5
453
 10
1.90913
 20
0.983810
 30
0.000000
  70
    32
  0
VERTEX
  8
0
  5
454
 10
1.90880
 20
0.984453
 30
0.000000
  70
    32
  0
VERTEX
  8
0
  5
455
 10
1.90847
 20
0.985098
 30
0.000000
  70
    32
  0
VERTEX
  8
0
  5
456
 10
1.90815
 20
0.985745
 30
0.000000
  70
    32
  0
VERTEX
  8
0
  5
457
 10
1.90784
 20
0.986394
 30
0.000000
  70
    32
  0
VERTEX
  8
0
  5
458
 10
1.90753
 20
0.987045
 30
0.000000
  70
    32
  0
VERTEX
  8
0
  5
459
 10
1.90724
 20
0.987699
 30
0.000000
  70
    32
  0
VERTEX
  8
0
  5
45A
 10
1.90695
 20
0.988355
 30
0.000000
  70
    32
  0
VERTEX
  8
0
  5
45B
 10
1.90668
 20
0.989014
 30
0.000000
  70
    32
  0
VERTEX
  8
0
  5
45C
 10
1.90641
 20
0.989675
 30
0.000000
  70
    32
  0
VERTEX
  8
0
  5
45D
 10
1.90616
 20
0.990339
 30
0.000000
  70
    32
  0
VERTEX
  8
0
  5
45E
 10
1.90591
 20
0.991006
 30
0.000000
  70
    32
  0
VERTEX
  8
0
  5
45F
 10
1.90568
 20
0.991676
 30
0.000000
  70
    32
  0
VERTEX
  8
0
  5
460
 10
1.90545
 20
0.992349
 30
0.000000
  70
    32
  0
VERTEX
  8
0
  5
461
 10
1.90524
 20
0.993025
 30
0.000000
  70
    32
  0
VERTEX
  8
0
  5
462
 10
1.90504
 20
0.993704
 30
0.000000
  70
    32
  0
VERTEX
  8
0
  5
463
 10
1.90485
 20
0.994387
 30
0.000000
  70
    32
  0
VERTEX
  8
0
  5
464
 10
1.90467
 20
0.995073
 30
0.000000
  70
    32
  0
VERTEX
  8
0
  5
465
 10
1.90451
 20
0.995762
 30
0.000000
  70
    32
  0
VERTEX
  8
0
  5
466
 10
1.90435
 20
0.996456
 30
0.000000
  70
    32
  0
VERTEX
  8
0
  5
467
 10
1.90421
 20
0.997153
 30
0.000000
  70
    32
  0
VERTEX
  8
0
  5
468
 10
1.90409
 20
0.997854
 30
0.000000
  70
    32
  0
VERTEX
  8
0
  5
469
 10
1.90398
 20
0.998559
 30
0.000000
  70
    32
  0
VERTEX
  8
0
  5
46A
 10
1.90388
 20
0.999268
 30
0.000000
  70
    32
  0
VERTEX
  8
0
  5
46B
 10
1.90380
 20
0.999981
 30
0.000000
  70
    32
  0
VERTEX
  8
0
  5
46C
 10
1.90373
 20
1.00070
 30
0.000000
  70
    32
  0
VERTEX
  8
0
  5
46D
 10
1.90367
 20
1.00142
 30
0.000000
  70
    32
  0
VERTEX
  8
0
  5
46E
 10
1.90363
 20
1.00215
 30
0.000000
  70
    32
  0
VERTEX
  8
0
  5
46F
 10
1.90361
 20
1.00288
 30
0.000000
  70
    32
  0
SEQEND
  8
0
  5
470
  0
POLYLINE
  8
0
  5
471
  62
177
  66
     1
 10
0.000000
 20
0.000000
 30
0.000000
  70
     8
  0
VERTEX
  8
0
  5
472
 10
1.56366
 20
1.59211
 30
0.000000
  70
    32
  0
VERTEX
  8
0
  5
473
 10
1.56305
 20
1.59251
 30
0.000000
  70
    32
  0
VERTEX
  8
0
  5
474
 10
1.56245
 20
1.59293
 30
0.000000
  70
    32
  0
VERTEX
  8
0
  5
475
 10
1.56186
 20
1.59335
 30
0.000000
  70
    32
  0
VERTEX
  8
0
  5
476
 10
1.56129
 20
1.59379
 30
0.000000
  70
    32
  0
VERTEX
  8
0
  5
477
 10
1.56072
 20
1.59423
 30
0.000000
  70
    32
  0
VERTEX
  8
0
  5
478
 10
1.56017
 20
1.59469
 30
0.000000
  70
    32
  0
VERTEX
  8
0
  5
479
 10
1.55962
 20
1.59515
 30
0.000000
  70
    32
  0
VERTEX
  8
0
  5
47A
 10
1.55909
 20
1.59563
 30
0.000000
  70
    32
  0
VERTEX
  8
0
  5
47B
 10
1.55856
 20
1.59611
 30
0.000000
  70
    32
  0
VERTEX
  8
0
  5
47C
 10
1.55805
 20
1.59660
 30
0.000000
  70
    32
  0
VERTEX
  8
0
  5
47D
 10
1.55754
 20
1.59710
 30
0.000000
  70
    32
  0
VERTEX
  8
0
  5
47E
 10
1.55704
 20
1.59761
 30
0.000000
  70
    32
  0
VERTEX
  8
0
  5
47F
 10
1.55655
 20
1.59812
 30
0.000000
  70
    32
  0
VERTEX
  8
0
  5
480
 10
1.55607
 20
1.59865
 30
0.000000
  70
    32
  0
VERTEX
  8
0
  5
481
 10
1.55560
 20
1.59918
 30
0.000000
  70
    32
  0
VERTEX
  8
0
  5
482
 10
1.55513
 20
1.59972
 30
0.000000
  70
    32
  0
VERTEX
  8
0
  5
483
 10
1.55467
 20
1.60027
 30
0.000000
  70
    32
  0
VERTEX
  8
0
  5
484
 10
1.55422
 20
1.60082
 30
0.000000
  70
    32
  0
VERTEX
  8
0
  5
485
 10
1.55378
 20
1.60138
 30
0.000000
  70
    32
  0
VERTEX
  8
0
  5
486
 10
1.55335
 20
1.60195
 30
0.000000
  70
    32
  0
VERTEX
  8
0
  5
487
 10
1.55292
 20
1.60252
 30
0.000000
  70
    32
  0
VERTEX
  8
0
  5
488
 10
1.55250
 20
1.60310
 30
0.000000
  70
    32
  0
VERTEX
  8
0
  5
489
 10
1.55208
 20
1.60369
 30
0.000000
  70
    32
  0
VERTEX
  8
0
  5
48A
 10
1.55167
 20
1.60428
 30
0.000000
  70
    32
  0
VERTEX
  8
0
  5
48B
 10
1.55127
 20
1.60488
 30
0.000000
  70
    32
  0
VERTEX
  8
0
  5
48C
 10
1.55087
 20
1.60548
 30
0.000000
  70
    32
  0
VERTEX
  8
0
  5
48D
 10
1.55048
 20
1.60609
 30
0.000000
  70
    32
  0
VERTEX
  8
0
  5
48E
 10
1.55009
 20
1.60670
 30
0.000000
  70
    32
  0
VERTEX
  8
0
  5
48F
 10
1.54970
 20
1.60732
 30
0.000000
  70
    32
  0
VERTEX
  8
0
  5
490
 10
1.54933
 20
1.60795
 30
0.000000
  70
    32
  0
VERTEX
  8
0
  5
491
 10
1.54895
 20
1.60857
 30
0.000000
  70
    32
  0
VERTEX
  8
0
  5
492
 10
1.54858
 20
1.60920
 30
0.000000
  70
    32
  0
VERTEX
  8
0
  5
493
 10
1.54822
 20
1.60984
 30
0.000000
  70
    32
  0
VERTEX
  8
0
  5
494
 10
1.54786
 20
1.61048
 30
0.000000
  70
    32
  0
VERTEX
  8
0
  5
495
 10
1.54750
 20
1.61112
 30
0.000000
  70
    32
  0
VERTEX
  8
0
  5
496
 10
1.54714
 20
1.61177
 30
0.000000
  70
    32
  0
VERTEX
  8
0
  5
497
 10
1.54679
 20
1.61242
 30
0.000000
  70
    32
  0
VERTEX
  8
0
  5
498
 10
1.54644
 20
1.61307
 30
0.000000
  70
    32
  0
VERTEX
  8
0
  5
499
 10
1.54609
 20
1.61373
 30
0.000000
  70
    32
  0
VERTEX
  8
0
  5
49A
 10
1.54575
 20
1.61439
 30
0.000000
  70
    32
  0
VERTEX
  8
0
  5
49B
 10
1.54541
 20
1.61505
 30
0.000000
  70
    32
  0
VERTEX
  8
0
  5
49C
 10
1.54507
 20
1.61571
 30
0.000000
  70
    32
  0
VERTEX
  8
0
  5
49D
 10
1.54473
 20
1.61637
 30
0.000000
  70
    32
  0
VERTEX
  8
0
  5
49E
 10
1.54439
 20
1.61704
 30
0.000000
  70
    32
  0
VERTEX
  8
0
  5
49F
 10
1.54406
 20
1.61771
 30
0.000000
  70
    32
  0
VERTEX
  8
0
  5
4A0
 10
1.54372
 20
1.61838
 30
0.000000
  70
    32
  0
VERTEX
  8
0
  5
4A1
 10
1.54339
 20
1.61905
 30
0.000000
  70
    32
  0
VERTEX
  8
0
  5
4A2
 10
1.54305
 20
1.61972
 30
0.000000
  70
    32
  0
VERTEX
  8
0
  5
4A3
 10
1.54272
 20
1.62039
 30
0.000000
  70
    32
  0
VERTEX
  8
0
  5
4A4
 10
1.54239
 20
1.62107
 30
0.000000
  70
    32
  0
VERTEX
  8
0
  5
4A5
 10
1.54205
 20
1.62174
 30
0.000000
  70
    32
  0
VERTEX
  8
0
  5
4A6
 10
1.54172
 20
1.62241
 30
0.000000
  70
    32
  0
VERTEX
  8
0
  5
4A7
 10
1.54138
 20
1.62309
 30
0.000000
  70
    32
  0
VERTEX
  8
0
  5
4A8
 10
1.54105
 20
1.62376
 30
0.000000
  70
    32
  0
VERTEX
  8
0
  5
4A9
 10
1.54071
 20
1.62443
 30
0.000000
  70
    32
  0
VERTEX
  8
0
  5
4AA
 10
1.54037
 20
1.62510
 30
0.000000
  70
    32
  0
VERTEX
  8
0
  5
4AB
 10
1.54003
 20
1.62577
 30
0.000000
  70
    32
  0
VERTEX
  8
0
  5
4AC
 10
1.53969
 20
1.62644
 30
0.000000
  70
    32
  0
VERTEX
  8
0
  5
4AD
 10
1.53934
 20
1.62711
 30
0.000000
  70
    32
  0
VERTEX
  8
0
  5
4AE
 10
1.53900
 20
1.62778
 30
0.000000
  70
    32
  0
VERTEX
  8
0
  5
4AF
 10
1.53865
 20
1.62844
 30
0.000000
  70
    32
  0
VERTEX
  8
0
  5
4B0
 10
1.53830
 20
1.62911
 30
0.000000
  70
    32
  0
VERTEX
  8
0
  5
4B1
 10
1.53794
 20
1.62977
 30
0.000000
  70
    32
  0
VERTEX
  8
0
  5
4B2
 10
1.53758
 20
1.63043
 30
0.000000
  70
    32
  0
VERTEX
  8
0
  5
4B3
 10
1.53722
 20
1.63108
 30
0.000000
  70
    32
  0
VERTEX
  8
0
  5
4B4
 10
1.53686
 20
1.63174
 30
0.000000
  70
    32
  0
VERTEX
  8
0
  5
4B5
 10
1.53649
 20
1.63239
 30
0.000000
  70
    32
  0
VERTEX
  8
0
  5
4B6
 10
1.53612
 20
1.63303
 30
0.000000
  70
    32
  0
VERTEX
  8
0
  5
4B7
 10
1.53574
 20
1.63368
 30
0.000000
  70
    32
  0
VERTEX
  8
0
  5
4B8
 10
1.53535
 20
1.63432
 30
0.000000
  70
    32
  0
VERTEX
  8
0
  5
4B9
 10
1.53497
 20
1.63495
 30
0.000000
  70
    32
  0
VERTEX
  8
0
  5
4BA
 10
1.53457
 20
1.63559
 30
0.000000
  70
    32
  0
VERTEX
  8
0
  5
4BB
 10
1.53418
 20
1.63621
 30
0.000000
  70
    32
  0
VERTEX
  8
0
  5
4BC
 10
1.53377
 20
1.63684
 30
0.000000
  70
    32
  0
VERTEX
  8
0
  5
4BD
 10
1.53336
 20
1.63746
 30
0.000000
  70
    32
  0
VERTEX
  8
0
  5
4BE
 10
1.53295
 20
1.63807
 30
0.000000
  70
    32
  0
VERTEX
  8
0
  5
4BF
 10
1.53253
 20
1.63868
 30
0.000000
  70
    32
  0
VERTEX
  8
0
  5
4C0
 10
1.53210
 20
1.63929
 30
0.000000
  70
    32
  0
VERTEX
  8
0
  5
4C1
 10
1.53166
 20
1.63989
 30
0.000000
  70
    32
  0
VERTEX
  8
0
  5
4C2
 10
1.53122
 20
1.64048
 30
0.000000
  70
    32
  0
VERTEX
  8
0
  5
4C3
 10
1.53077
 20
1.64107
 30
0.000000
  70
    32
  0
VERTEX
  8
0
  5
4C4
 10
1.53031
 20
1.64165
 30
0.000000
  70
    32
  0
VERTEX
  8
0
  5
4C5
 10
1.52985
 20
1.64222
 30
0.000000
  70
    32
  0
VERTEX
  8
0
  5
4C6
 10
1.52938
 20
1.64279
 30
0.000000
  70
    32
  0
VERTEX
  8
0
  5
4C7
 10
1.52890
 20
1.64335
 30
0.000000
  70
    32
  0
VERTEX
  8
0
  5
4C8
 10
1.52841
 20
1.64391
 30
0.000000
  70
    32
  0
VERTEX
  8
0
  5
4C9
 10
1.52791
 20
1.64446
 30
0.000000
  70
    32
  0
VERTEX
  8
0
  5
4CA
 10
1.52740
 20
1.64500
 30
0.000000
  70
    32
  0
VERTEX
  8
0
  5
4CB
 10
1.52689
 20
1.64553
 30
0.000000
  70
    32
  0
VERTEX
  8
0
  5
4CC
 10
1.52636
 20
1.64606
 30
0.000000
  70
    32
  0
VERTEX
  8
0
  5
4CD
 10
1.52583
 20
1.64657
 30
0.000000
  70
    32
  0
VERTEX
  8
0
  5
4CE
 10
1.52528
 20
1.64708
 30
0.000000
  70
    32
  0
VERTEX
  8
0
  5
4CF
 10
1.52473
 20
1.64758
 30
0.000000
  70
    32
  0
VERTEX
  8
0
  5
4D0
 10
1.52416
 20
1.64808
 30
0.000000
  70
    32
  0
VERTEX
  8
0
  5
4D1
 10
1.52359
 20
1.64856
 30
0.000000
  70
    32
  0
VERTEX
  8
0
  5
4D2
 10
1.52300
 20
1.64904
 30
0.000000
  70
    32
  0
VERTEX
  8
0
  5
4D3
 10
1.52241
 20
1.64950
 30
0.000000
  70
    32
  0
VERTEX
  8
0
  5
4D4
 10
1.52180
 20
1.64996
 30
0.000000
  70
    32
  0
VERTEX
  8
0
  5
4D5
 10
1.52118
 20
1.65041
 30
0.000000
  70
    32
  0
VERTEX
  8
0
  5
4D6
 10
1.52055
 20
1.65084
 30
0.000000
  70
    32
  0
VERTEX
  8
0
  5
4D7
 10
1.51990
 20
1.65127
 30
0.000000
  70
    32
  0
VERTEX
  8
0
  5
4D8
 10
1.51925
 20
1.65169
 30
0.000000
  70
    32
  0
VERTEX
  8
0
  5
4D9
 10
1.51858
 20
1.65210
 30
0.000000
  70
    32
  0
VERTEX
  8
0
  5
4DA
 10
1.51774
 20
1.65259
 30
0.000000
  70
    32
  0
VERTEX
  8
0
  5
4DB
 10
1.51639
 20
1.65334
 30
0.000000
  70
    32
  0
VERTEX
  8
0
  5
4DC
 10
1.51503
 20
1.65408
 30
0.000000
  70
    32
  0
VERTEX
  8
0
  5
4DD
 10
1.51367
 20
1.65479
 30
0.000000
  70
    32
  0
VERTEX
  8
0
  5
4DE
 10
1.51231
 20
1.65548
 30
0.000000
  70
    32
  0
VERTEX
  8
0
  5
4DF
 10
1.51093
 20
1.65614
 30
0.000000
  70
    32
  0
VERTEX
  8
0
  5
4E0
 10
1.50955
 20
1.65678
 30
0.000000
  70
    32
  0
VERTEX
  8
0
  5
4E1
 10
1.50817
 20
1.65739
 30
0.000000
  70
    32
  0
VERTEX
  8
0
  5
4E2
 10
1.50678
 20
1.65799
 30
0.000000
  70
    32
  0
VERTEX
  8
0
  5
4E3
 10
1.50538
 20
1.65856
 30
0.000000
  70
    32
  0
VERTEX
  8
0
  5
4E4
 10
1.50398
 20
1.65910
 30
0.000000
  70
    32
  0
VERTEX
  8
0
  5
4E5
 10
1.50258
 20
1.65963
 30
0.000000
  70
    32
  0
VERTEX
  8
0
  5
4E6
 10
1.50117
 20
1.66013
 30
0.000000
  70
    32
  0
VERTEX
  8
0
  5
4E7
 10
1.49975
 20
1.66060
 30
0.000000
  70
    32
  0
VERTEX
  8
0
  5
4E8
 10
1.49833
 20
1.66106
 30
0.000000
  70
    32
  0
VERTEX
  8
0
  5
4E9
 10
1.49691
 20
1.66149
 30
0.000000
  70
    32
  0
VERTEX
  8
0
  5
4EA
 10
1.49549
 20
1.66190
 30
0.000000
  70
    32
  0
VERTEX
  8
0
  5
4EB
 10
1.49406
 20
1.66229
 30
0.000000
  70
    32
  0
VERTEX
  8
0
  5
4EC
 10
1.49263
 20
1.66265
 30
0.000000
  70
    32
  0
VERTEX
  8
0
  5
4ED
 10
1.49119
 20
1.66299
 30
0.000000
  70
    32
  0
VERTEX
  8
0
  5
4EE
 10
1.48976
 20
1.66331
 30
0.000000
  70
    32
  0
VERTEX
  8
0
  5
4EF
 10
1.48832
 20
1.66360
 30
0.000000
  70
    32
  0
VERTEX
  8
0
  5
4F0
 10
1.48688
 20
1.66388
 30
0.000000
  70
    32
  0
VERTEX
  8
0
  5
4F1
 10
1.48544
 20
1.66413
 30
0.000000
  70
    32
  0
VERTEX
  8
0
  5
4F2
 10
1.48399
 20
1.66436
 30
0.000000
  70
    32
  0
VERTEX
  8
0
  5
4F3
 10
1.48255
 20
1.66456
 30
0.000000
  70
    32
  0
VERTEX
  8
0
  5
4F4
 10
1.48110
 20
1.66475
 30
0.000000
  70
    32
  0
VERTEX
  8
0
  5
4F5
 10
1.47965
 20
1.66491
 30
0.000000
  70
    32
  0
VERTEX
  8
0
  5
4F6
 10
1.47821
 20
1.66505
 30
0.000000
  70
    32
  0
VERTEX
  8
0
  5
4F7
 10
1.47676
 20
1.66517
 30
0.000000
  70
    32
  0
VERTEX
  8
0
  5
4F8
 10
1.47531
 20
1.66527
 30
0.000000
  70
    32
  0
VERTEX
  8
0
  5
4F9
 10
1.47386
 20
1.66534
 30
0.000000
  70
    32
  0
VERTEX
  8
0
  5
4FA
 10
1.47241
 20
1.66539
 30
0.000000
  70
    32
  0
VERTEX
  8
0
  5
4FB
 10
1.47097
 20
1.66542
 30
0.000000
  70
    32
  0
VERTEX
  8
0
  5
4FC
 10
1.46952
 20
1.66543
 30
0.000000
  70
    32
  0
VERTEX
  8
0
  5
4FD
 10
1.46808
 20
1.66542
 30
0.000000
  70
    32
  0
VERTEX
  8
0
  5
4FE
 10
1.46663
 20
1.66539
 30
0.000000
  70
    32
  0
VERTEX
  8
0
  5
4FF
 10
1.46519
 20
1.66533
 30
0.000000
  70
    32
  0
VERTEX
  8
0
  5
500
 10
1.46375
 20
1.66526
 30
0.000000
  70
    32
  0
VERTEX
  8
0
  5
501
 10
1.46231
 20
1.66516
 30
0.000000
  70
    32
  0
VERTEX
  8
0
  5
502
 10
1.46088
 20
1.66504
 30
0.000000
  70
    32
  0
VERTEX
  8
0
  5
503
 10
1.45945
 20
1.66490
 30
0.000000
  70
    32
  0
VERTEX
  8
0
  5
504
 10
1.45802
 20
1.66474
 30
0.000000
  70
    32
  0
VERTEX
  8
0
  5
505
 10
1.45659
 20
1.66456
 30
0.000000
  70
    32
  0
VERTEX
  8
0
  5
506
 10
1.45517
 20
1.66436
 30
0.000000
  70
    32
  0
VERTEX
  8
0
  5
507
 10
1.45375
 20
1.66413
 30
0.000000
  70
    32
  0
VERTEX
  8
0
  5
508
 10
1.45233
 20
1.66389
 30
0.000000
  70
    32
  0
VERTEX
  8
0
  5
509
 10
1.45092
 20
1.66362
 30
0.000000
  70
    32
  0
VERTEX
  8
0
  5
50A
 10
1.44951
 20
1.66333
 30
0.000000
  70
    32
  0
VERTEX
  8
0
  5
50B
 10
1.44811
 20
1.66303
 30
0.000000
  70
    32
  0
VERTEX
  8
0
  5
50C
 10
1.44671
 20
1.66270
 30
0.000000
  70
    32
  0
VERTEX
  8
0
  5
50D
 10
1.44532
 20
1.66235
 30
0.000000
  70
    32
  0
VERTEX
  8
0
  5
50E
 10
1.44393
 20
1.66198
 30
0.000000
  70
    32
  0
VERTEX
  8
0
  5
50F
 10
1.44255
 20
1.66159
 30
0.000000
  70
    32
  0
VERTEX
  8
0
  5
510
 10
1.44117
 20
1.66119
 30
0.000000
  70
    32
  0
VERTEX
  8
0
  5
511
 10
1.43980
 20
1.66076
 30
0.000000
  70
    32
  0
VERTEX
  8
0
  5
512
 10
1.43844
 20
1.66031
 30
0.000000
  70
    32
  0
VERTEX
  8
0
  5
513
 10
1.43708
 20
1.65984
 30
0.000000
  70
    32
  0
VERTEX
  8
0
  5
514
 10
1.43573
 20
1.65935
 30
0.000000
  70
    32
  0
VERTEX
  8
0
  5
515
 10
1.43439
 20
1.65884
 30
0.000000
  70
    32
  0
VERTEX
  8
0
  5
516
 10
1.43305
 20
1.65831
 30
0.000000
  70
    32
  0
VERTEX
  8
0
  5
517
 10
1.43172
 20
1.65776
 30
0.000000
  70
    32
  0
VERTEX
  8
0
  5
518
 10
1.43040
 20
1.65719
 30
0.000000
  70
    32
  0
VERTEX
  8
0
  5
519
 10
1.42909
 20
1.65660
 30
0.000000
  70
    32
  0
VERTEX
  8
0
  5
51A
 10
1.42778
 20
1.65599
 30
0.000000
  70
    32
  0
VERTEX
  8
0
  5
51B
 10
1.42649
 20
1.65536
 30
0.000000
  70
    32
  0
VERTEX
  8
0
  5
51C
 10
1.42520
 20
1.65471
 30
0.000000
  70
    32
  0
VERTEX
  8
0
  5
51D
 10
1.42392
 20
1.65405
 30
0.000000
  70
    32
  0
VERTEX
  8
0
  5
51E
 10
1.42265
 20
1.65336
 30
0.000000
  70
    32
  0
VERTEX
  8
0
  5
51F
 10
1.42139
 20
1.65265
 30
0.000000
  70
    32
  0
VERTEX
  8
0
  5
520
 10
1.42014
 20
1.65193
 30
0.000000
  70
    32
  0
VERTEX
  8
0
  5
521
 10
1.41890
 20
1.65118
 30
0.000000
  70
    32
  0
VERTEX
  8
0
  5
522
 10
1.41767
 20
1.65042
 30
0.000000
  70
    32
  0
VERTEX
  8
0
  5
523
 10
1.41645
 20
1.64963
 30
0.000000
  70
    32
  0
VERTEX
  8
0
  5
524
 10
1.41524
 20
1.64883
 30
0.000000
  70
    32
  0
VERTEX
  8
0
  5
525
 10
1.41404
 20
1.64801
 30
0.000000
  70
    32
  0
VERTEX
  8
0
  5
526
 10
1.41286
 20
1.64717
 30
0.000000
  70
    32
  0
VERTEX
  8
0
  5
527
 10
1.41168
 20
1.64631
 30
0.000000
  70
    32
  0
VERTEX
  8
0
  5
528
 10
1.41052
 20
1.64544
 30
0.000000
  70
    32
  0
VERTEX
  8
0
  5
529
 10
1.40937
 20
1.64454
 30
0.000000
  70
    32
  0
VERTEX
  8
0
  5
52A
 10
1.40823
 20
1.64362
 30
0.000000
  70
    32
  0
VERTEX
  8
0
  5
52B
 10
1.40710
 20
1.64269
 30
0.000000
  70
    32
  0
VERTEX
  8
0
  5
52C
 10
1.40598
 20
1.64174
 30
0.000000
  70
    32
  0
VERTEX
  8
0
  5
52D
 10
1.40488
 20
1.64077
 30
0.000000
  70
    32
  0
VERTEX
  8
0
  5
52E
 10
1.40379
 20
1.63978
 30
0.000000
  70
    32
  0
VERTEX
  8
0
  5
52F
 10
1.40272
 20
1.63877
 30
0.000000
  70
    32
  0
VERTEX
  8
0
  5
530
 10
1.40166
 20
1.63775
 30
0.000000
  70
    32
  0
VERTEX
  8
0
  5
531
 10
1.40061
 20
1.63670
 30
0.000000
  70
    32
  0
VERTEX
  8
0
  5
532
 10
1.39957
 20
1.63564
 30
0.000000
  70
    32
  0
VERTEX
  8
0
  5
533
 10
1.39855
 20
1.63456
 30
0.000000
  70
    32
  0
VERTEX
  8
0
  5
534
 10
1.39755
 20
1.63347
 30
0.000000
  70
    32
  0
VERTEX
  8
0
  5
535
 10
1.39656
 20
1.63235
 30
0.000000
  70
    32
  0
VERTEX
  8
0
  5
536
 10
1.39558
 20
1.63122
 30
0.000000
  70
    32
  0
VERTEX
  8
0
  5
537
 10
1.39462
 20
1.63006
 30
0.000000
  70
    32
  0
VERTEX
  8
0
  5
538
 10
1.39368
 20
1.62890
 30
0.000000
  70
    32
  0
VERTEX
  8
0
  5
539
 10
1.39275
 20
1.62771
 30
0.000000
  70
    32
  0
VERTEX
  8
0
  5
53A
 10
1.39184
 20
1.62651
 30
0.000000
  70
    32
  0
VERTEX
  8
0
  5
53B
 10
1.39094
 20
1.62528
 30
0.000000
  70
    32
  0
VERTEX
  8
0
  5
53C
 10
1.39006
 20
1.62404
 30
0.000000
  70
    32
  0
VERTEX
  8
0
  5
53D
 10
1.38920
 20
1.62279
 30
0.000000
  70
    32
  0
VERTEX
  8
0
  5
53E
 10
1.38835
 20
1.62151
 30
0.000000
  70
    32
  0
VERTEX
  8
0
  5
53F
 10
1.38752
 20
1.62022
 30
0.000000
  70
    32
  0
VERTEX
  8
0
  5
540
 10
1.38671
 20
1.61891
 30
0.000000
  70
    32
  0
VERTEX
  8
0
  5
541
 10
1.38592
 20
1.61759
 30
0.000000
  70
    32
  0
VERTEX
  8
0
  5
542
 10
1.38515
 20
1.61625
 30
0.000000
  70
    32
  0
VERTEX
  8
0
  5
543
 10
1.38440
 20
1.61490
 30
0.000000
  70
    32
  0
VERTEX
  8
0
  5
544
 10
1.38367
 20
1.61354
 30
0.000000
  70
    32
  0
VERTEX
  8
0
  5
545
 10
1.38297
 20
1.61218
 30
0.000000
  70
    32
  0
VERTEX
  8
0
  5
546
 10
1.38229
 20
1.61081
 30
0.000000
  70
    32
  0
VERTEX
  8
0
  5
547
 10
1.38163
 20
1.60944
 30
0.000000
  70
    32
  0
VERTEX
  8
0
  5
548
 10
1.38100
 20
1.60806
 30
0.000000
  70
    32
  0
VERTEX
  8
0
  5
549
 10
1.38039
 20
1.60667
 30
0.000000
  70
    32
  0
VERTEX
  8
0
  5
54A
 10
1.37980
 20
1.60528
 30
0.000000
  70
    32
  0
VERTEX
  8
0
  5
54B
 10
1.37924
 20
1.60388
 30
0.000000
  70
    32
  0
VERTEX
  8
0
  5
54C
 10
1.37870
 20
1.60248
 30
0.000000
  70
    32
  0
VERTEX
  8
0
  5
54D
 10
1.37818
 20
1.60107
 30
0.000000
  70
    32
  0
VERTEX
  8
0
  5
54E
 10
1.37769
 20
1.59966
 30
0.000000
  70
    32
  0
VERTEX
  8
0
  5
54F
 10
1.37722
 20
1.59825
 30
0.000000
  70
    32
  0
VERTEX
  8
0
  5
550
 10
1.37677
 20
1.59683
 30
0.000000
  70
    32
  0
VERTEX
  8
0
  5
551
 10
1.37635
 20
1.59541
 30
0.000000
  70
    32
  0
VERTEX
  8
0
  5
552
 10
1.37594
 20
1.59398
 30
0.000000
  70
    32
  0
VERTEX
  8
0
  5
553
 10
1.37556
 20
1.59255
 30
0.000000
  70
    32
  0
VERTEX
  8
0
  5
554
 10
1.37521
 20
1.59112
 30
0.000000
  70
    32
  0
VERTEX
  8
0
  5
555
 10
1.37487
 20
1.58968
 30
0.000000
  70
    32
  0
VERTEX
  8
0
  5
556
 10
1.37456
 20
1.58825
 30
0.000000
  70
    32
  0
VERTEX
  8
0
  5
557
 10
1.37427
 20
1.58681
 30
0.000000
  70
    32
  0
VERTEX
  8
0
  5
558
 10
1.37401
 20
1.58537
 30
0.000000
  70
    32
  0
VERTEX
  8
0
  5
559
 10
1.37376
 20
1.58392
 30
0.000000
  70
    32
  0
VERTEX
  8
0
  5
55A
 10
1.37354
 20
1.58248
 30
0.000000
  70
    32
  0
VERTEX
  8
0
  5
55B
 10
1.37334
 20
1.58103
 30
0.000000
  70
    32
  0
VERTEX
  8
0
  5
55C
 10
1.37316
 20
1.57959
 30
0.000000
  70
    32
  0
VERTEX
  8
0
  5
55D
 10
1.37301
 20
1.57814
 30
0.000000
  70
    32
  0
VERTEX
  8
0
  5
55E
 10
1.37287
 20
1.57669
 30
0.000000
  70
    32
  0
VERTEX
  8
0
  5
55F
 10
1.37276
 20
1.57524
 30
0.000000
  70
    32
  0
VERTEX
  8
0
  5
560
 10
1.37267
 20
1.57380
 30
0.000000
  70
    32
  0
VERTEX
  8
0
  5
561
 10
1.37260
 20
1.57235
 30
0.000000
  70
    32
  0
VERTEX
  8
0
  5
562
 10
1.37255
 20
1.57090
 30
0.000000
  70
    32
  0
VERTEX
  8
0
  5
563
 10
1.37253
 20
1.56945
 30
0.000000
  70
    32
  0
VERTEX
  8
0
  5
564
 10
1.37253
 20
1.56801
 30
0.000000
  70
    32
  0
VERTEX
  8
0
  5
565
 10
1.37254
 20
1.56656
 30
0.000000
  70
    32
  0
VERTEX
  8
0
  5
566
 10
1.37258
 20
1.56512
 30
0.000000
  70
    32
  0
VERTEX
  8
0
  5
567
 10
1.37265
 20
1.56368
 30
0.000000
  70
    32
  0
VERTEX
  8
0
  5
568
 10
1.37273
 20
1.56224
 30
0.000000
  70
    32
  0
VERTEX
  8
0
  5
569
 10
1.37283
 20
1.56080
 30
0.000000
  70
    32
  0
VERTEX
  8
0
  5
56A
 10
1.37296
 20
1.55937
 30
0.000000
  70
    32
  0
VERTEX
  8
0
  5
56B
 10
1.37310
 20
1.55794
 30
0.000000
  70
    32
  0
VERTEX
  8
0
  5
56C
 10
1.37327
 20
1.55651
 30
0.000000
  70
    32
  0
VERTEX
  8
0
  5
56D
 10
1.37346
 20
1.55508
 30
0.000000
  70
    32
  0
VERTEX
  8
0
  5
56E
 10
1.37367
 20
1.55366
 30
0.000000
  70
    32
  0
VERTEX
  8
0
  5
56F
 10
1.37390
 20
1.55224
 30
0.000000
  70
    32
  0
VERTEX
  8
0
  5
570
 10
1.37415
 20
1.55083
 30
0.000000
  70
    32
  0
VERTEX
  8
0
  5
571
 10
1.37442
 20
1.54942
 30
0.000000
  70
    32
  0
VERTEX
  8
0
  5
572
 10
1.37471
 20
1.54801
 30
0.000000
  70
    32
  0
VERTEX
  8
0
  5
573
 10
1.37502
 20
1.54661
 30
0.000000
  70
    32
  0
VERTEX
  8
0
  5
574
 10
1.37536
 20
1.54521
 30
0.000000
  70
    32
  0
VERTEX
  8
0
  5
575
 10
1.37571
 20
1.54382
 30
0.000000
  70
    32
  0
VERTEX
  8
0
  5
576
 10
1.37609
 20
1.54243
 30
0.000000
  70
    32
  0
VERTEX
  8
0
  5
577
 10
1.37648
 20
1.54105
 30
0.000000
  70
    32
  0
VERTEX
  8
0
  5
578
 10
1.37690
 20
1.53968
 30
0.000000
  70
    32
  0
VERTEX
  8
0
  5
579
 10
1.37733
 20
1.53831
 30
0.000000
  70
    32
  0
VERTEX
  8
0
  5
57A
 10
1.37779
 20
1.53695
 30
0.000000
  70
    32
  0
VERTEX
  8
0
  5
57B
 10
1.37826
 20
1.53559
 30
0.000000
  70
    32
  0
VERTEX
  8
0
  5
57C
 10
1.37876
 20
1.53424
 30
0.000000
  70
    32
  0
VERTEX
  8
0
  5
57D
 10
1.37927
 20
1.53290
 30
0.000000
  70
    32
  0
VERTEX
  8
0
  5
57E
 10
1.37981
 20
1.53156
 30
0.000000
  70
    32
  0
VERTEX
  8
0
  5
57F
 10
1.38036
 20
1.53024
 30
0.000000
  70
    32
  0
VERTEX
  8
0
  5
580
 10
1.38094
 20
1.52892
 30
0.000000
  70
    32
  0
VERTEX
  8
0
  5
581
 10
1.38153
 20
1.52761
 30
0.000000
  70
    32
  0
VERTEX
  8
0
  5
582
 10
1.38215
 20
1.52630
 30
0.000000
  70
    32
  0
VERTEX
  8
0
  5
583
 10
1.38278
 20
1.52501
 30
0.000000
  70
    32
  0
VERTEX
  8
0
  5
584
 10
1.38344
 20
1.52372
 30
0.000000
  70
    32
  0
VERTEX
  8
0
  5
585
 10
1.38411
 20
1.52245
 30
0.000000
  70
    32
  0
VERTEX
  8
0
  5
586
 10
1.38480
 20
1.52118
 30
0.000000
  70
    32
  0
VERTEX
  8
0
  5
587
 10
1.38551
 20
1.51992
 30
0.000000
  70
    32
  0
VERTEX
  8
0
  5
588
 10
1.38624
 20
1.51867
 30
0.000000
  70
    32
  0
VERTEX
  8
0
  5
589
 10
1.38699
 20
1.51744
 30
0.000000
  70
    32
  0
VERTEX
  8
0
  5
58A
 10
1.38776
 20
1.51621
 30
0.000000
  70
    32
  0
VERTEX
  8
0
  5
58B
 10
1.38855
 20
1.51499
 30
0.000000
  70
    32
  0
VERTEX
  8
0
  5
58C
 10
1.38936
 20
1.51378
 30
0.000000
  70
    32
  0
VERTEX
  8
0
  5
58D
 10
1.39018
 20
1.51259
 30
0.000000
  70
    32
  0
VERTEX
  8
0
  5
58E
 10
1.39103
 20
1.51140
 30
0.000000
  70
    32
  0
VERTEX
  8
0
  5
58F
 10
1.39189
 20
1.51023
 30
0.000000
  70
    32
  0
VERTEX
  8
0
  5
590
 10
1.39278
 20
1.50907
 30
0.000000
  70
    32
  0
VERTEX
  8
0
  5
591
 10
1.39368
 20
1.50792
 30
0.000000
  70
    32
  0
VERTEX
  8
0
  5
592
 10
1.39460
 20
1.50678
 30
0.000000
  70
    32
  0
VERTEX
  8
0
  5
593
 10
1.39554
 20
1.50566
 30
0.000000
  70
    32
  0
VERTEX
  8
0
  5
594
 10
1.39649
 20
1.50455
 30
0.000000
  70
    32
  0
VERTEX
  8
0
  5
595
 10
1.39747
 20
1.50345
 30
0.000000
  70
    32
  0
VERTEX
  8
0
  5
596
 10
1.39846
 20
1.50236
 30
0.000000
  70
    32
  0
VERTEX
  8
0
  5
597
 10
1.39947
 20
1.50129
 30
0.000000
  70
    32
  0
VERTEX
  8
0
  5
598
 10
1.40051
 20
1.50023
 30
0.000000
  70
    32
  0
VERTEX
  8
0
  5
599
 10
1.40155
 20
1.49919
 30
0.000000
  70
    32
  0
VERTEX
  8
0
  5
59A
 10
1.40262
 20
1.49816
 30
0.000000
  70
    32
  0
VERTEX
  8
0
  5
59B
 10
1.40370
 20
1.49714
 30
0.000000
  70
    32
  0
VERTEX
  8
0
  5
59C
 10
1.40481
 20
1.49614
 30
0.000000
  70
    32
  0
VERTEX
  8
0
  5
59D
 10
1.40593
 20
1.49515
 30
0.000000
  70
    32
  0
VERTEX
  8
0
  5
59E
 10
1.40707
 20
1.49418
 30
0.000000
  70
    32
  0
VERTEX
  8
0
  5
59F
 10
1.40822
 20
1.49323
 30
0.000000
  70
    32
  0
VERTEX
  8
0
  5
5A0
 10
1.40940
 20
1.49229
 30
0.000000
  70
    32
  0
VERTEX
  8
0
  5
5A1
 10
1.41059
 20
1.49136
 30
0.000000
  70
    32
  0
VERTEX
  8
0
  5
5A2
 10
1.41180
 20
1.49045
 30
0.000000
  70
    32
  0
VERTEX
  8
0
  5
5A3
 10
1.41302
 20
1.48956
 30
0.000000
  70
    32
  0
VERTEX
  8
0
  5
5A4
 10
1.41427
 20
1.48869
 30
0.000000
  70
    32
  0
VERTEX
  8
0
  5
5A5
 10
1.41553
 20
1.48783
 30
0.000000
  70
    32
  0
VERTEX
  8
0
  5
5A6
 10
1.41681
 20
1.48698
 30
0.000000
  70
    32
  0
VERTEX
  8
0
  5
5A7
 10
1.41810
 20
1.48616
 30
0.000000
  70
    32
  0
VERTEX
  8
0
  5
5A8
 10
1.41941
 20
1.48535
 30
0.000000
  70
    32
  0
VERTEX
  8
0
  5
5A9
 10
1.42074
 20
1.48456
 30
0.000000
  70
    32
  0
VERTEX
  8
0
  5
5AA
 10
1.42160
 20
1.48408
 30
0.000000
  70
    32
  0
VERTEX
  8
0
  5
5AB
 10
1.42229
 20
1.48370
 30
0.000000
  70
    32
  0
VERTEX
  8
0
  5
5AC
 10
1.42298
 20
1.48335
 30
0.000000
  70
    32
  0
VERTEX
  8
0
  5
5AD
 10
1.42367
 20
1.48300
 30
0.000000
  70
    32
  0
VERTEX
  8
0
  5
5AE
 10
1.42437
 20
1.48268
 30
0.000000
  70
    32
  0
VERTEX
  8
0
  5
5AF
 10
1.42508
 20
1.48237
 30
0.000000
  70
    32
  0
VERTEX
  8
0
  5
5B0
 10
1.42578
 20
1.48207
 30
0.000000
  70
    32
  0
VERTEX
  8
0
  5
5B1
 10
1.42649
 20
1.48179
 30
0.000000
  70
    32
  0
VERTEX
  8
0
  5
5B2
 10
1.42720
 20
1.48153
 30
0.000000
  70
    32
  0
VERTEX
  8
0
  5
5B3
 10
1.42791
 20
1.48128
 30
0.000000
  70
    32
  0
VERTEX
  8
0
  5
5B4
 10
1.42863
 20
1.48104
 30
0.000000
  70
    32
  0
VERTEX
  8
0
  5
5B5
 10
1.42934
 20
1.48082
 30
0.000000
  70
    32
  0
VERTEX
  8
0
  5
5B6
 10
1.43006
 20
1.48061
 30
0.000000
  70
    32
  0
VERTEX
  8
0
  5
5B7
 10
1.43079
 20
1.48041
 30
0.000000
  70
    32
  0
VERTEX
  8
0
  5
5B8
 10
1.43151
 20
1.48023
 30
0.000000
  70
    32
  0
VERTEX
  8
0
  5
5B9
 10
1.43224
 20
1.48005
 30
0.000000
  70
    32
  0
VERTEX
  8
0
  5
5BA
 10
1.43297
 20
1.47990
 30
0.000000
  70
    32
  0
VERTEX
  8
0
  5
5BB
 10
1.43370
 20
1.47975
 30
0.000000
  70
    32
  0
VERTEX
  8
0
  5
5BC
 10
1.43443
 20
1.47961
 30
0.000000
  70
    32
  0
VERTEX
  8
0
  5
5BD
 10
1.43517
 20
1.47949
 30
0.000000
  70
    32
  0
VERTEX
  8
0
  5
5BE
 10
1.43590
 20
1.47937
 30
0.000000
  70
    32
  0
VERTEX
  8
0
  5
5BF
 10
1.43664
 20
1.47927
 30
0.000000
  70
    32
  0
VERTEX
  8
0
  5
5C0
 10
1.43738
 20
1.47917
 30
0.000000
  70
    32
  0
VERTEX
  8
0
  5
5C1
 10
1.43812
 20
1.47909
 30
0.000000
  70
    32
  0
VERTEX
  8
0
  5
5C2
 10
1.43887
 20
1.47902
 30
0.000000
  70
    32
  0
VERTEX
  8
0
  5
5C3
 10
1.43961
 20
1.47895
 30
0.000000
  70
    32
  0
VERTEX
  8
0
  5
5C4
 10
1.44036
 20
1.47889
 30
0.000000
  70
    32
  0
VERTEX
  8
0
  5
5C5
 10
1.44111
 20
1.47885
 30
0.000000
  70
    32
  0
VERTEX
  8
0
  5
5C6
 10
1.44186
 20
1.47881
 30
0.000000
  70
    32
  0
VERTEX
  8
0
  5
5C7
 10
1.44261
 20
1.47877
 30
0.000000
  70
    32
  0
VERTEX
  8
0
  5
5C8
 10
1.44336
 20
1.47875
 30
0.000000
  70
    32
  0
VERTEX
  8
0
  5
5C9
 10
1.44411
 20
1.47873
 30
0.000000
  70
    32
  0
VERTEX
  8
0
  5
5CA
 10
1.44486
 20
1.47872
 30
0.000000
  70
    32
  0
VERTEX
  8
0
  5
5CB
 10
1.44562
 20
1.47872
 30
0.000000
  70
    32
  0
VERTEX
  8
0
  5
5CC
 10
1.44637
 20
1.47872
 30
0.000000
  70
    32
  0
VERTEX
  8
0
  5
5CD
 10
1.44713
 20
1.47873
 30
0.000000
  70
    32
  0
VERTEX
  8
0
  5
5CE
 10
1.44788
 20
1.47874
 30
0.000000
  70
    32
  0
VERTEX
  8
0
  5
5CF
 10
1.44864
 20
1.47876
 30
0.000000
  70
    32
  0
VERTEX
  8
0
  5
5D0
 10
1.44940
 20
1.47878
 30
0.000000
  70
    32
  0
VERTEX
  8
0
  5
5D1
 10
1.45015
 20
1.47881
 30
0.000000
  70
    32
  0
VERTEX
  8
0
  5
5D2
 10
1.45091
 20
1.47884
 30
0.000000
  70
    32
  0
VERTEX
  8
0
  5
5D3
 10
1.45167
 20
1.47888
 30
0.000000
  70
    32
  0
VERTEX
  8
0
  5
5D4
 10
1.45243
 20
1.47892
 30
0.000000
  70
    32
  0
VERTEX
  8
0
  5
5D5
 10
1.45319
 20
1.47896
 30
0.000000
  70
    32
  0
VERTEX
  8
0
  5
5D6
 10
1.45395
 20
1.47901
 30
0.000000
  70
    32
  0
VERTEX
  8
0
  5
5D7
 10
1.45471
 20
1.47906
 30
0.000000
  70
    32
  0
VERTEX
  8
0
  5
5D8
 10
1.45547
 20
1.47911
 30
0.000000
  70
    32
  0
VERTEX
  8
0
  5
5D9
 10
1.45623
 20
1.47916
 30
0.000000
  70
    32
  0
VERTEX
  8
0
  5
5DA
 10
1.45698
 20
1.47922
 30
0.000000
  70
    32
  0
VERTEX
  8
0
  5
5DB
 10
1.45774
 20
1.47927
 30
0.000000
  70
    32
  0
VERTEX
  8
0
  5
5DC
 10
1.45850
 20
1.47933
 30
0.000000
  70
    32
  0
VERTEX
  8
0
  5
5DD
 10
1.45926
 20
1.47939
 30
0.000000
  70
    32
  0
VERTEX
  8
0
  5
5DE
 10
1.46002
 20
1.47944
 30
0.000000
  70
    32
  0
VERTEX
  8
0
  5
5DF
 10
1.46077
 20
1.47950
 30
0.000000
  70
    32
  0
VERTEX
  8
0
  5
5E0
 10
1.46153
 20
1.47956
 30
0.000000
  70
    32
  0
VERTEX
  8
0
  5
5E1
 10
1.46229
 20
1.47962
 30
0.000000
  70
    32
  0
VERTEX
  8
0
  5
5E2
 10
1.46304
 20
1.47967
 30
0.000000
  70
    32
  0
VERTEX
  8
0
  5
5E3
 10
1.46379
 20
1.47973
 30
0.000000
  70
    32
  0
VERTEX
  8
0
  5
5E4
 10
1.46455
 20
1.47978
 30
0.000000
  70
    32
  0
VERTEX
  8
0
  5
5E5
 10
1.46530
 20
1.47983
 30
0.000000
  70
    32
  0
VERTEX
  8
0
  5
5E6
 10
1.46605
 20
1.47988
 30
0.000000
  70
    32
  0
VERTEX
  8
0
  5
5E7
 10
1.46680
 20
1.47992
 30
0.000000
  70
    32
  0
VERTEX
  8
0
  5
5E8
 10
1.46755
 20
1.47997
 30
0.000000
  70
    32
  0
VERTEX
  8
0
  5
5E9
 10
1.46830
 20
1.48001
 30
0.000000
  70
    32
  0
VERTEX
  8
0
  5
5EA
 10
1.46904
 20
1.48004
 30
0.000000
  70
    32
  0
VERTEX
  8
0
  5
5EB
 10
1.46979
 20
1.48008
 30
0.000000
  70
    32
  0
VERTEX
  8
0
  5
5EC
 10
1.47053
 20
1.48010
 30
0.000000
  70
    32
  0
VERTEX
  8
0
  5
5ED
 10
1.47127
 20
1.48013
 30
0.000000
  70
    32
  0
VERTEX
  8
0
  5
5EE
 10
1.47201
 20
1.48015
 30
0.000000
  70
    32
  0
VERTEX
  8
0
  5
5EF
 10
1.47275
 20
1.48016
 30
0.000000
  70
    32
  0
VERTEX
  8
0
  5
5F0
 10
1.47349
 20
1.48017
 30
0.000000
  70
    32
  0
VERTEX
  8
0
  5
5F1
 10
1.47422
 20
1.48017
 30
0.000000
  70
    32
  0
VERTEX
  8
0
  5
5F2
 10
1.47496
 20
1.48016
 30
0.000000
  70
    32
  0
VERTEX
  8
0
  5
5F3
 10
1.47569
 20
1.48015
 30
0.000000
  70
    32
  0
VERTEX
  8
0
  5
5F4
 10
1.47642
 20
1.48014
 30
0.000000
  70
    32
  0
VERTEX
  8
0
  5
5F5
 10
1.47715
 20
1.48011
 30
0.000000
  70
    32
  0
VERTEX
  8
0
  5
5F6
 10
1.47787
 20
1.48008
 30
0.000000
  70
    32
  0
VERTEX
  8
0
  5
5F7
 10
1.47859
 20
1.48004
 30
0.000000
  70
    32
  0
VERTEX
  8
0
  5
5F8
 10
1.47931
 20
1.47999
 30
0.000000
  70
    32
  0
VERTEX
  8
0
  5
5F9
 10
1.48003
 20
1.47993
 30
0.000000
  70
    32
  0
VERTEX
  8
0
  5
5FA
 10
1.48075
 20
1.47987
 30
0.000000
  70
    32
  0
VERTEX
  8
0
  5
5FB
 10
1.48146
 20
1.47979
 30
0.000000
  70
    32
  0
VERTEX
  8
0
  5
5FC
 10
1.48217
 20
1.47971
 30
0.000000
  70
    32
  0
VERTEX
  8
0
  5
5FD
 10
1.48288
 20
1.47961
 30
0.000000
  70
    32
  0
VERTEX
  8
0
  5
5FE
 10
1.48358
 20
1.47951
 30
0.000000
  70
    32
  0
VERTEX
  8
0
  5
5FF
 10
1.48428
 20
1.47939
 30
0.000000
  70
    32
  0
VERTEX
  8
0
  5
600
 10
1.48498
 20
1.47927
 30
0.000000
  70
    32
  0
VERTEX
  8
0
  5
601
 10
1.48568
 20
1.47913
 30
0.000000
  70
    32
  0
VERTEX
  8
0
  5
602
 10
1.48637
 20
1.47898
 30
0.000000
  70
    32
  0
VERTEX
  8
0
  5
603
 10
1.48706
 20
1.47882
 30
0.000000
  70
    32
  0
VERTEX
  8
0
  5
604
 10
1.48775
 20
1.47865
 30
0.000000
  70
    32
  0
VERTEX
  8
0
  5
605
 10
1.48843
 20
1.47847
 30
0.000000
  70
    32
  0
VERTEX
  8
0
  5
606
 10
1.48911
 20
1.47827
 30
0.000000
  70
    32
  0
VERTEX
  8
0
  5
607
 10
1.48979
 20
1.47806
 30
0.000000
  70
    32
  0
VERTEX
  8
0
  5
608
 10
1.49046
 20
1.47784
 30
0.000000
  70
    32
  0
VERTEX
  8
0
  5
609
 10
1.49113
 20
1.47760
 30
0.000000
  70
    32
  0
VERTEX
  8
0
  5
60A
 10
1.49180
 20
1.47735
 30
0.000000
  70
    32
  0
VERTEX
  8
0
  5
60B
 10
1.49246
 20
1.47708
 30
0.000000
  70
    32
  0
VERTEX
  8
0
  5
60C
 10
1.49312
 20
1.47680
 30
0.000000
  70
    32
  0
VERTEX
  8
0
  5
60D
 10
1.49378
 20
1.47651
 30
0.000000
  70
    32
  0
VERTEX
  8
0
  5
60E
 10
1.49443
 20
1.47620
 30
0.000000
  70
    32
  0
VERTEX
  8
0
  5
60F
 10
1.49507
 20
1.47587
 30
0.000000
  70
    32
  0
VERTEX
  8
0
  5
610
 10
1.49572
 20
1.47553
 30
0.000000
  70
    32
  0
VERTEX
  8
0
  5
611
 10
1.49636
 20
1.47517
 30
0.000000
  70
    32
  0
SEQEND
  8
0
  5
612
  0
POLYLINE
  8
0
  5
613
  62
177
  66
     1
 10
0.000000
 20
0.000000
 30
0.000000
  70
     8
  0
VERTEX
  8
0
  5
614
 10
2.17575
 20
1.47473
 30
0.000000
  70
    32
  0
VERTEX
  8
0
  5
615
 10
2.17638
 20
1.47510
 30
0.000000
  70
    32
  0
VERTEX
  8
0
  5
616
 10
2.17702
 20
1.47544
 30
0.000000
  70
    32
  0
VERTEX
  8
0
  5
617
 10
2.17766
 20
1.47577
 30
0.000000
  70
    32
  0
VERTEX
  8
0
  5
618
 10
2.17830
 20
1.47608
 30
0.000000
  70
    32
  0
VERTEX
  8
0
  5
619
 10
2.17895
 20
1.47638
 30
0.000000
  70
    32
  0
VERTEX
  8
0
  5
61A
 10
2.17961
 20
1.47666
 30
0.000000
  70
    32
  0
VERTEX
  8
0
  5
61B
 10
2.18027
 20
1.47693
 30
0.000000
  70
    32
  0
VERTEX
  8
0
  5
61C
 10
2.18093
 20
1.47718
 30
0.000000
  70
    32
  0
VERTEX
  8
0
  5
61D
 10
2.18159
 20
1.47742
 30
0.000000
  70
    32
  0
VERTEX
  8
0
  5
61E
 10
2.18226
 20
1.47765
 30
0.000000
  70
    32
  0
VERTEX
  8
0
  5
61F
 10
2.18293
 20
1.47786
 30
0.000000
  70
    32
  0
VERTEX
  8
0
  5
620
 10
2.18361
 20
1.47806
 30
0.000000
  70
    32
  0
VERTEX
  8
0
  5
621
 10
2.18429
 20
1.47825
 30
0.000000
  70
    32
  0
VERTEX
  8
0
  5
622
 10
2.18497
 20
1.47842
 30
0.000000
  70
    32
  0
VERTEX
  8
0
  5
623
 10
2.18566
 20
1.47858
 30
0.000000
  70
    32
  0
VERTEX
  8
0
  5
624
 10
2.18634
 20
1.47873
 30
0.000000
  70
    32
  0
VERTEX
  8
0
  5
625
 10
2.18704
 20
1.47887
 30
0.000000
  70
    32
  0
VERTEX
  8
0
  5
626
 10
2.18773
 20
1.47900
 30
0.000000
  70
    32
  0
VERTEX
  8
0
  5
627
 10
2.18843
 20
1.47912
 30
0.000000
  70
    32
  0
VERTEX
  8
0
  5
628
 10
2.18913
 20
1.47922
 30
0.000000
  70
    32
  0
VERTEX
  8
0
  5
629
 10
2.18983
 20
1.47932
 30
0.000000
  70
    32
  0
VERTEX
  8
0
  5
62A
 10
2.19054
 20
1.47941
 30
0.000000
  70
    32
  0
VERTEX
  8
0
  5
62B
 10
2.19125
 20
1.47948
 30
0.000000
  70
    32
  0
VERTEX
  8
0
  5
62C
 10
2.19196
 20
1.47955
 30
0.000000
  70
    32
  0
VERTEX
  8
0
  5
62D
 10
2.19268
 20
1.47961
 30
0.000000
  70
    32
  0
VERTEX
  8
0
  5
62E
 10
2.19339
 20
1.47966
 30
0.000000
  70
    32
  0
VERTEX
  8
0
  5
62F
 10
2.19411
 20
1.47970
 30
0.000000
  70
    32
  0
VERTEX
  8
0
  5
630
 10
2.19483
 20
1.47974
 30
0.000000
  70
    32
  0
VERTEX
  8
0
  5
631
 10
2.19556
 20
1.47976
 30
0.000000
  70
    32
  0
VERTEX
  8
0
  5
632
 10
2.19628
 20
1.47978
 30
0.000000
  70
    32
  0
VERTEX
  8
0
  5
633
 10
2.19701
 20
1.47980
 30
0.000000
  70
    32
  0
VERTEX
  8
0
  5
634
 10
2.19774
 20
1.47980
 30
0.000000
  70
    32
  0
VERTEX
  8
0
  5
635
 10
2.19847
 20
1.47980
 30
0.000000
  70
    32
  0
VERTEX
  8
0
  5
636
 10
2.19920
 20
1.47980
 30
0.000000
  70
    32
  0
VERTEX
  8
0
  5
637
 10
2.19994
 20
1.47979
 30
0.000000
  70
    32
  0
VERTEX
  8
0
  5
638
 10
2.20068
 20
1.47977
 30
0.000000
  70
    32
  0
VERTEX
  8
0
  5
639
 10
2.20142
 20
1.47975
 30
0.000000
  70
    32
  0
VERTEX
  8
0
  5
63A
 10
2.20216
 20
1.47972
 30
0.000000
  70
    32
  0
VERTEX
  8
0
  5
63B
 10
2.20290
 20
1.47969
 30
0.000000
  70
    32
  0
VERTEX
  8
0
  5
63C
 10
2.20364
 20
1.47966
 30
0.000000
  70
    32
  0
VERTEX
  8
0
  5
63D
 10
2.20439
 20
1.47962
 30
0.000000
  70
    32
  0
VERTEX
  8
0
  5
63E
 10
2.20513
 20
1.47958
 30
0.000000
  70
    32
  0
VERTEX
  8
0
  5
63F
 10
2.20588
 20
1.47953
 30
0.000000
  70
    32
  0
VERTEX
  8
0
  5
640
 10
2.20663
 20
1.47949
 30
0.000000
  70
    32
  0
VERTEX
  8
0
  5
641
 10
2.20738
 20
1.47944
 30
0.000000
  70
    32
  0
VERTEX
  8
0
  5
642
 10
2.20813
 20
1.47939
 30
0.000000
  70
    32
  0
VERTEX
  8
0
  5
643
 10
2.20888
 20
1.47933
 30
0.000000
  70
    32
  0
VERTEX
  8
0
  5
644
 10
2.20963
 20
1.47928
 30
0.000000
  70
    32
  0
VERTEX
  8
0
  5
645
 10
2.21038
 20
1.47923
 30
0.000000
  70
    32
  0
VERTEX
  8
0
  5
646
 10
2.21114
 20
1.47917
 30
0.000000
  70
    32
  0
VERTEX
  8
0
  5
647
 10
2.21189
 20
1.47911
 30
0.000000
  70
    32
  0
VERTEX
  8
0
  5
648
 10
2.21265
 20
1.47906
 30
0.000000
  70
    32
  0
VERTEX
  8
0
  5
649
 10
2.21340
 20
1.47900
 30
0.000000
  70
    32
  0
VERTEX
  8
0
  5
64A
 10
2.21416
 20
1.47895
 30
0.000000
  70
    32
  0
VERTEX
  8
0
  5
64B
 10
2.21492
 20
1.47889
 30
0.000000
  70
    32
  0
VERTEX
  8
0
  5
64C
 10
2.21567
 20
1.47884
 30
0.000000
  70
    32
  0
VERTEX
  8
0
  5
64D
 10
2.21643
 20
1.47879
 30
0.000000
  70
    32
  0
VERTEX
  8
0
  5
64E
 10
2.21719
 20
1.47874
 30
0.000000
  70
    32
  0
VERTEX
  8
0
  5
64F
 10
2.21794
 20
1.47869
 30
0.000000
  70
    32
  0
VERTEX
  8
0
  5
650
 10
2.21870
 20
1.47865
 30
0.000000
  70
    32
  0
VERTEX
  8
0
  5
651
 10
2.21946
 20
1.47860
 30
0.000000
  70
    32
  0
VERTEX
  8
0
  5
652
 10
2.22021
 20
1.47856
 30
0.000000
  70
    32
  0
VERTEX
  8
0
  5
653
 10
2.22097
 20
1.47853
 30
0.000000
  70
    32
  0
VERTEX
  8
0
  5
654
 10
2.22173
 20
1.47850
 30
0.000000
  70
    32
  0
VERTEX
  8
0
  5
655
 10
2.22248
 20
1.47847
 30
0.000000
  70
    32
  0
VERTEX
  8
0
  5
656
 10
2.22324
 20
1.47845
 30
0.000000
  70
    32
  0
VERTEX
  8
0
  5
657
 10
2.22399
 20
1.47843
 30
0.000000
  70
    32
  0
VERTEX
  8
0
  5
658
 10
2.22475
 20
1.47842
 30
0.000000
  70
    32
  0
VERTEX
  8
0
  5
659
 10
2.22550
 20
1.47841
 30
0.000000
  70
    32
  0
VERTEX
  8
0
  5
65A
 10
2.22625
 20
1.47841
 30
0.000000
  70
    32
  0
VERTEX
  8
0
  5
65B
 10
2.22700
 20
1.47842
 30
0.000000
  70
    32
  0
VERTEX
  8
0
  5
65C
 10
2.22776
 20
1.47843
 30
0.000000
  70
    32
  0
VERTEX
  8
0
  5
65D
 10
2.22851
 20
1.47844
 30
0.000000
  70
    32
  0
VERTEX
  8
0
  5
65E
 10
2.22925
 20
1.47847
 30
0.000000
  70
    32
  0
VERTEX
  8
0
  5
65F
 10
2.23000
 20
1.47850
 30
0.000000
  70
    32
  0
VERTEX
  8
0
  5
660
 10
2.23075
 20
1.47854
 30
0.000000
  70
    32
  0
VERTEX
  8
0
  5
661
 10
2.23150
 20
1.47859
 30
0.000000
  70
    32
  0
VERTEX
  8
0
  5
662
 10
2.23224
 20
1.47865
 30
0.000000
  70
    32
  0
VERTEX
  8
0
  5
663
 10
2.23298
 20
1.47872
 30
0.000000
  70
    32
  0
VERTEX
  8
0
  5
664
 10
2.23372
 20
1.47879
 30
0.000000
  70
    32
  0
VERTEX
  8
0
  5
665
 10
2.23446
 20
1.47888
 30
0.000000
  70
    32
  0
VERTEX
  8
0
  5
666
 10
2.23520
 20
1.47897
 30
0.000000
  70
    32
  0
VERTEX
  8
0
  5
667
 10
2.23594
 20
1.47907
 30
0.000000
  70
    32
  0
VERTEX
  8
0
  5
668
 10
2.23667
 20
1.47919
 30
0.000000
  70
    32
  0
VERTEX
  8
0
  5
669
 10
2.23741
 20
1.47931
 30
0.000000
  70
    32
  0
VERTEX
  8
0
  5
66A
 10
2.23814
 20
1.47945
 30
0.000000
  70
    32
  0
VERTEX
  8
0
  5
66B
 10
2.23887
 20
1.47960
 30
0.000000
  70
    32
  0
VERTEX
  8
0
  5
66C
 10
2.23960
 20
1.47976
 30
0.000000
  70
    32
  0
VERTEX
  8
0
  5
66D
 10
2.24032
 20
1.47993
 30
0.000000
  70
    32
  0
VERTEX
  8
0
  5
66E
 10
2.24104
 20
1.48011
 30
0.000000
  70
    32
  0
VERTEX
  8
0
  5
66F
 10
2.24176
 20
1.48031
 30
0.000000
  70
    32
  0
VERTEX
  8
0
  5
670
 10
2.24248
 20
1.48052
 30
0.000000
  70
    32
  0
VERTEX
  8
0
  5
671
 10
2.24320
 20
1.48074
 30
0.000000
  70
    32
  0
VERTEX
  8
0
  5
672
 10
2.24391
 20
1.48098
 30
0.000000
  70
    32
  0
VERTEX
  8
0
  5
673
 10
2.24462
 20
1.48123
 30
0.000000
  70
    32
  0
VERTEX
  8
0
  5
674
 10
2.24533
 20
1.48149
 30
0.000000
  70
    32
  0
VERTEX
  8
0
  5
675
 10
2.24604
 20
1.48177
 30
0.000000
  70
    32
  0
VERTEX
  8
0
  5
676
 10
2.24674
 20
1.48207
 30
0.000000
  70
    32
  0
VERTEX
  8
0
  5
677
 10
2.24744
 20
1.48238
 30
0.000000
  70
    32
  0
VERTEX
  8
0
  5
678
 10
2.24814
 20
1.48270
 30
0.000000
  70
    32
  0
VERTEX
  8
0
  5
679
 10
2.24883
 20
1.48304
 30
0.000000
  70
    32
  0
VERTEX
  8
0
  5
67A
 10
2.24952
 20
1.48340
 30
0.000000
  70
    32
  0
VERTEX
  8
0
  5
67B
 10
2.25021
 20
1.48377
 30
0.000000
  70
    32
  0
VERTEX
  8
0
  5
67C
 10
2.25106
 20
1.48426
 30
0.000000
  70
    32
  0
VERTEX
  8
0
  5
67D
 10
2.25239
 20
1.48505
 30
0.000000
  70
    32
  0
VERTEX
  8
0
  5
67E
 10
2.25370
 20
1.48585
 30
0.000000
  70
    32
  0
VERTEX
  8
0
  5
67F
 10
2.25500
 20
1.48667
 30
0.000000
  70
    32
  0
VERTEX
  8
0
  5
680
 10
2.25627
 20
1.48751
 30
0.000000
  70
    32
  0
VERTEX
  8
0
  5
681
 10
2.25753
 20
1.48837
 30
0.000000
  70
    32
  0
VERTEX
  8
0
  5
682
 10
2.25878
 20
1.48924
 30
0.000000
  70
    32
  0
VERTEX
  8
0
  5
683
 10
2.26000
 20
1.49013
 30
0.000000
  70
    32
  0
VERTEX
  8
0
  5
684
 10
2.26121
 20
1.49104
 30
0.000000
  70
    32
  0
VERTEX
  8
0
  5
685
 10
2.26240
 20
1.49196
 30
0.000000
  70
    32
  0
VERTEX
  8
0
  5
686
 10
2.26357
 20
1.49290
 30
0.000000
  70
    32
  0
VERTEX
  8
0
  5
687
 10
2.26473
 20
1.49386
 30
0.000000
  70
    32
  0
VERTEX
  8
0
  5
688
 10
2.26587
 20
1.49483
 30
0.000000
  70
    32
  0
VERTEX
  8
0
  5
689
 10
2.26699
 20
1.49581
 30
0.000000
  70
    32
  0
VERTEX
  8
0
  5
68A
 10
2.26809
 20
1.49681
 30
0.000000
  70
    32
  0
VERTEX
  8
0
  5
68B
 10
2.26917
 20
1.49783
 30
0.000000
  70
    32
  0
VERTEX
  8
0
  5
68C
 10
2.27024
 20
1.49886
 30
0.000000
  70
    32
  0
VERTEX
  8
0
  5
68D
 10
2.27129
 20
1.49990
 30
0.000000
  70
    32
  0
VERTEX
  8
0
  5
68E
 10
2.27232
 20
1.50096
 30
0.000000
  70
    32
  0
VERTEX
  8
0
  5
68F
 10
2.27333
 20
1.50203
 30
0.000000
  70
    32
  0
VERTEX
  8
0
  5
690
 10
2.27432
 20
1.50311
 30
0.000000
  70
    32
  0
VERTEX
  8
0
  5
691
 10
2.27530
 20
1.50421
 30
0.000000
  70
    32
  0
VERTEX
  8
0
  5
692
 10
2.27625
 20
1.50532
 30
0.000000
  70
    32
  0
VERTEX
  8
0
  5
693
 10
2.27719
 20
1.50645
 30
0.000000
  70
    32
  0
VERTEX
  8
0
  5
694
 10
2.27811
 20
1.50758
 30
0.000000
  70
    32
  0
VERTEX
  8
0
  5
695
 10
2.27901
 20
1.50873
 30
0.000000
  70
    32
  0
VERTEX
  8
0
  5
696
 10
2.27989
 20
1.50989
 30
0.000000
  70
    32
  0
VERTEX
  8
0
  5
697
 10
2.28076
 20
1.51106
 30
0.000000
  70
    32
  0
VERTEX
  8
0
  5
698
 10
2.28160
 20
1.51225
 30
0.000000
  70
    32
  0
VERTEX
  8
0
  5
699
 10
2.28243
 20
1.51344
 30
0.000000
  70
    32
  0
VERTEX
  8
0
  5
69A
 10
2.28323
 20
1.51465
 30
0.000000
  70
    32
  0
VERTEX
  8
0
  5
69B
 10
2.28402
 20
1.51586
 30
0.000000
  70
    32
  0
VERTEX
  8
0
  5
69C
 10
2.28479
 20
1.51709
 30
0.000000
  70
    32
  0
VERTEX
  8
0
  5
69D
 10
2.28554
 20
1.51833
 30
0.000000
  70
    32
  0
VERTEX
  8
0
  5
69E
 10
2.28627
 20
1.51958
 30
0.000000
  70
    32
  0
VERTEX
  8
0
  5
69F
 10
2.28698
 20
1.52083
 30
0.000000
  70
    32
  0
VERTEX
  8
0
  5
6A0
 10
2.28767
 20
1.52210
 30
0.000000
  70
    32
  0
VERTEX
  8
0
  5
6A1
 10
2.28834
 20
1.52338
 30
0.000000
  70
    32
  0
VERTEX
  8
0
  5
6A2
 10
2.28900
 20
1.52466
 30
0.000000
  70
    32
  0
VERTEX
  8
0
  5
6A3
 10
2.28963
 20
1.52596
 30
0.000000
  70
    32
  0
VERTEX
  8
0
  5
6A4
 10
2.29024
 20
1.52726
 30
0.000000
  70
    32
  0
VERTEX
  8
0
  5
6A5
 10
2.29084
 20
1.52857
 30
0.000000
  70
    32
  0
VERTEX
  8
0
  5
6A6
 10
2.29141
 20
1.52989
 30
0.000000
  70
    32
  0
VERTEX
  8
0
  5
6A7
 10
2.29197
 20
1.53122
 30
0.000000
  70
    32
  0
VERTEX
  8
0
  5
6A8
 10
2.29250
 20
1.53255
 30
0.000000
  70
    32
  0
VERTEX
  8
0
  5
6A9
 10
2.29302
 20
1.53389
 30
0.000000
  70
    32
  0
VERTEX
  8
0
  5
6AA
 10
2.29351
 20
1.53524
 30
0.000000
  70
    32
  0
VERTEX
  8
0
  5
6AB
 10
2.29399
 20
1.53660
 30
0.000000
  70
    32
  0
VERTEX
  8
0
  5
6AC
 10
2.29444
 20
1.53796
 30
0.000000
  70
    32
  0
VERTEX
  8
0
  5
6AD
 10
2.29488
 20
1.53933
 30
0.000000
  70
    32
  0
VERTEX
  8
0
  5
6AE
 10
2.29529
 20
1.54070
 30
0.000000
  70
    32
  0
VERTEX
  8
0
  5
6AF
 10
2.29569
 20
1.54208
 30
0.000000
  70
    32
  0
VERTEX
  8
0
  5
6B0
 10
2.29606
 20
1.54347
 30
0.000000
  70
    32
  0
VERTEX
  8
0
  5
6B1
 10
2.29641
 20
1.54486
 30
0.000000
  70
    32
  0
VERTEX
  8
0
  5
6B2
 10
2.29675
 20
1.54626
 30
0.000000
  70
    32
  0
VERTEX
  8
0
  5
6B3
 10
2.29706
 20
1.54766
 30
0.000000
  70
    32
  0
VERTEX
  8
0
  5
6B4
 10
2.29735
 20
1.54907
 30
0.000000
  70
    32
  0
VERTEX
  8
0
  5
6B5
 10
2.29762
 20
1.55048
 30
0.000000
  70
    32
  0
VERTEX
  8
0
  5
6B6
 10
2.29787
 20
1.55190
 30
0.000000
  70
    32
  0
VERTEX
  8
0
  5
6B7
 10
2.29810
 20
1.55332
 30
0.000000
  70
    32
  0
VERTEX
  8
0
  5
6B8
 10
2.29831
 20
1.55474
 30
0.000000
  70
    32
  0
VERTEX
  8
0
  5
6B9
 10
2.29850
 20
1.55616
 30
0.000000
  70
    32
  0
VERTEX
  8
0
  5
6BA
 10
2.29866
 20
1.55759
 30
0.000000
  70
    32
  0
VERTEX
  8
0
  5
6BB
 10
2.29881
 20
1.55903
 30
0.000000
  70
    32
  0
VERTEX
  8
0
  5
6BC
 10
2.29893
 20
1.56046
 30
0.000000
  70
    32
  0
VERTEX
  8
0
  5
6BD
 10
2.29904
 20
1.56190
 30
0.000000
  70
    32
  0
VERTEX
  8
0
  5
6BE
 10
2.29912
 20
1.56334
 30
0.000000
  70
    32
  0
VERTEX
  8
0
  5
6BF
 10
2.29918
 20
1.56478
 30
0.000000
  70
    32
  0
VERTEX
  8
0
  5
6C0
 10
2.29922
 20
1.56622
 30
0.000000
  70
    32
  0
VERTEX
  8
0
  5
6C1
 10
2.29924
 20
1.56767
 30
0.000000
  70
    32
  0
VERTEX
  8
0
  5
6C2
 10
2.29923
 20
1.56912
 30
0.000000
  70
    32
  0
VERTEX
  8
0
  5
6C3
 10
2.29921
 20
1.57056
 30
0.000000
  70
    32
  0
VERTEX
  8
0
  5
6C4
 10
2.29916
 20
1.57201
 30
0.000000
  70
    32
  0
VERTEX
  8
0
  5
6C5
 10
2.29909
 20
1.57346
 30
0.000000
  70
    32
  0
VERTEX
  8
0
  5
6C6
 10
2.29900
 20
1.57491
 30
0.000000
  70
    32
  0
VERTEX
  8
0
  5
6C7
 10
2.29889
 20
1.57636
 30
0.000000
  70
    32
  0
VERTEX
  8
0
  5
6C8
 10
2.29875
 20
1.57781
 30
0.000000
  70
    32
  0
VERTEX
  8
0
  5
6C9
 10
2.29860
 20
1.57925
 30
0.000000
  70
    32
  0
VERTEX
  8
0
  5
6CA
 10
2.29842
 20
1.58070
 30
0.000000
  70
    32
  0
VERTEX
  8
0
  5
6CB
 10
2.29822
 20
1.58215
 30
0.000000
  70
    32
  0
VERTEX
  8
0
  5
6CC
 10
2.29800
 20
1.58359
 30
0.000000
  70
    32
  0
VERTEX
  8
0
  5
6CD
 10
2.29775
 20
1.58504
 30
0.000000
  70
    32
  0
VERTEX
  8
0
  5
6CE
 10
2.29748
 20
1.58648
 30
0.000000
  70
    32
  0
VERTEX
  8
0
  5
6CF
 10
2.29720
 20
1.58792
 30
0.000000
  70
    32
  0
VERTEX
  8
0
  5
6D0
 10
2.29688
 20
1.58936
 30
0.000000
  70
    32
  0
VERTEX
  8
0
  5
6D1
 10
2.29655
 20
1.59079
 30
0.000000
  70
    32
  0
VERTEX
  8
0
  5
6D2
 10
2.29619
 20
1.59222
 30
0.000000
  70
    32
  0
VERTEX
  8
0
  5
6D3
 10
2.29581
 20
1.59365
 30
0.000000
  70
    32
  0
VERTEX
  8
0
  5
6D4
 10
2.29541
 20
1.59508
 30
0.000000
  70
    32
  0
VERTEX
  8
0
  5
6D5
 10
2.29498
 20
1.59650
 30
0.000000
  70
    32
  0
VERTEX
  8
0
  5
6D6
 10
2.29454
 20
1.59792
 30
0.000000
  70
    32
  0
VERTEX
  8
0
  5
6D7
 10
2.29406
 20
1.59934
 30
0.000000
  70
    32
  0
VERTEX
  8
0
  5
6D8
 10
2.29357
 20
1.60075
 30
0.000000
  70
    32
  0
VERTEX
  8
0
  5
6D9
 10
2.29305
 20
1.60216
 30
0.000000
  70
    32
  0
VERTEX
  8
0
  5
6DA
 10
2.29251
 20
1.60356
 30
0.000000
  70
    32
  0
VERTEX
  8
0
  5
6DB
 10
2.29195
 20
1.60496
 30
0.000000
  70
    32
  0
VERTEX
  8
0
  5
6DC
 10
2.29136
 20
1.60635
 30
0.000000
  70
    32
  0
VERTEX
  8
0
  5
6DD
 10
2.29075
 20
1.60774
 30
0.000000
  70
    32
  0
VERTEX
  8
0
  5
6DE
 10
2.29012
 20
1.60912
 30
0.000000
  70
    32
  0
VERTEX
  8
0
  5
6DF
 10
2.28946
 20
1.61050
 30
0.000000
  70
    32
  0
VERTEX
  8
0
  5
6E0
 10
2.28878
 20
1.61186
 30
0.000000
  70
    32
  0
VERTEX
  8
0
  5
6E1
 10
2.28808
 20
1.61323
 30
0.000000
  70
    32
  0
VERTEX
  8
0
  5
6E2
 10
2.28735
 20
1.61458
 30
0.000000
  70
    32
  0
VERTEX
  8
0
  5
6E3
 10
2.28660
 20
1.61593
 30
0.000000
  70
    32
  0
VERTEX
  8
0
  5
6E4
 10
2.28583
 20
1.61728
 30
0.000000
  70
    32
  0
VERTEX
  8
0
  5
6E5
 10
2.28504
 20
1.61860
 30
0.000000
  70
    32
  0
VERTEX
  8
0
  5
6E6
 10
2.28423
 20
1.61991
 30
0.000000
  70
    32
  0
VERTEX
  8
0
  5
6E7
 10
2.28340
 20
1.62120
 30
0.000000
  70
    32
  0
VERTEX
  8
0
  5
6E8
 10
2.28256
 20
1.62247
 30
0.000000
  70
    32
  0
VERTEX
  8
0
  5
6E9
 10
2.28170
 20
1.62372
 30
0.000000
  70
    32
  0
VERTEX
  8
0
  5
6EA
 10
2.28082
 20
1.62496
 30
0.000000
  70
    32
  0
VERTEX
  8
0
  5
6EB
 10
2.27992
 20
1.62618
 30
0.000000
  70
    32
  0
VERTEX
  8
0
  5
6EC
 10
2.27901
 20
1.62738
 30
0.000000
  70
    32
  0
VERTEX
  8
0
  5
6ED
 10
2.27808
 20
1.62857
 30
0.000000
  70
    32
  0
VERTEX
  8
0
  5
6EE
 10
2.27714
 20
1.62974
 30
0.000000
  70
    32
  0
VERTEX
  8
0
  5
6EF
 10
2.27618
 20
1.63089
 30
0.000000
  70
    32
  0
VERTEX
  8
0
  5
6F0
 10
2.27521
 20
1.63202
 30
0.000000
  70
    32
  0
VERTEX
  8
0
  5
6F1
 10
2.27422
 20
1.63313
 30
0.000000
  70
    32
  0
VERTEX
  8
0
  5
6F2
 10
2.27321
 20
1.63423
 30
0.000000
  70
    32
  0
VERTEX
  8
0
  5
6F3
 10
2.27220
 20
1.63531
 30
0.000000
  70
    32
  0
VERTEX
  8
0
  5
6F4
 10
2.27116
 20
1.63637
 30
0.000000
  70
    32
  0
VERTEX
  8
0
  5
6F5
 10
2.27012
 20
1.63741
 30
0.000000
  70
    32
  0
VERTEX
  8
0
  5
6F6
 10
2.26905
 20
1.63844
 30
0.000000
  70
    32
  0
VERTEX
  8
0
  5
6F7
 10
2.26798
 20
1.63944
 30
0.000000
  70
    32
  0
VERTEX
  8
0
  5
6F8
 10
2.26689
 20
1.64043
 30
0.000000
  70
    32
  0
VERTEX
  8
0
  5
6F9
 10
2.26579
 20
1.64140
 30
0.000000
  70
    32
  0
VERTEX
  8
0
  5
6FA
 10
2.26468
 20
1.64235
 30
0.000000
  70
    32
  0
VERTEX
  8
0
  5
6FB
 10
2.26355
 20
1.64328
 30
0.000000
  70
    32
  0
VERTEX
  8
0
  5
6FC
 10
2.26241
 20
1.64420
 30
0.000000
  70
    32
  0
VERTEX
  8
0
  5
6FD
 10
2.26126
 20
1.64509
 30
0.000000
  70
    32
  0
VERTEX
  8
0
  5
6FE
 10
2.26010
 20
1.64597
 30
0.000000
  70
    32
  0
VERTEX
  8
0
  5
6FF
 10
2.25892
 20
1.64683
 30
0.000000
  70
    32
  0
VERTEX
  8
0
  5
700
 10
2.25773
 20
1.64767
 30
0.000000
  70
    32
  0
VERTEX
  8
0
  5
701
 10
2.25654
 20
1.64849
 30
0.000000
  70
    32
  0
VERTEX
  8
0
  5
702
 10
2.25533
 20
1.64929
 30
0.000000
  70
    32
  0
VERTEX
  8
0
  5
703
 10
2.25411
 20
1.65007
 30
0.000000
  70
    32
  0
VERTEX
  8
0
  5
704
 10
2.25288
 20
1.65083
 30
0.000000
  70
    32
  0
VERTEX
  8
0
  5
705
 10
2.25164
 20
1.65158
 30
0.000000
  70
    32
  0
VERTEX
  8
0
  5
706
 10
2.25039
 20
1.65230
 30
0.000000
  70
    32
  0
VERTEX
  8
0
  5
707
 10
2.24913
 20
1.65301
 30
0.000000
  70
    32
  0
VERTEX
  8
0
  5
708
 10
2.24786
 20
1.65370
 30
0.000000
  70
    32
  0
VERTEX
  8
0
  5
709
 10
2.24658
 20
1.65436
 30
0.000000
  70
    32
  0
VERTEX
  8
0
  5
70A
 10
2.24530
 20
1.65501
 30
0.000000
  70
    32
  0
VERTEX
  8
0
  5
70B
 10
2.24400
 20
1.65564
 30
0.000000
  70
    32
  0
VERTEX
  8
0
  5
70C
 10
2.24269
 20
1.65625
 30
0.000000
  70
    32
  0
VERTEX
  8
0
  5
70D
 10
2.24138
 20
1.65684
 30
0.000000
  70
    32
  0
VERTEX
  8
0
  5
70E
 10
2.24006
 20
1.65740
 30
0.000000
  70
    32
  0
VERTEX
  8
0
  5
70F
 10
2.23873
 20
1.65795
 30
0.000000
  70
    32
  0
VERTEX
  8
0
  5
710
 10
2.23740
 20
1.65848
 30
0.000000
  70
    32
  0
VERTEX
  8
0
  5
711
 10
2.23605
 20
1.65899
 30
0.000000
  70
    32
  0
VERTEX
  8
0
  5
712
 10
2.23470
 20
1.65948
 30
0.000000
  70
    32
  0
VERTEX
  8
0
  5
713
 10
2.23335
 20
1.65995
 30
0.000000
  70
    32
  0
VERTEX
  8
0
  5
714
 10
2.23198
 20
1.66040
 30
0.000000
  70
    32
  0
VERTEX
  8
0
  5
715
 10
2.23061
 20
1.66083
 30
0.000000
  70
    32
  0
VERTEX
  8
0
  5
716
 10
2.22924
 20
1.66124
 30
0.000000
  70
    32
  0
VERTEX
  8
0
  5
717
 10
2.22785
 20
1.66163
 30
0.000000
  70
    32
  0
VERTEX
  8
0
  5
718
 10
2.22647
 20
1.66200
 30
0.000000
  70
    32
  0
VERTEX
  8
0
  5
719
 10
2.22507
 20
1.66235
 30
0.000000
  70
    32
  0
VERTEX
  8
0
  5
71A
 10
2.22368
 20
1.66267
 30
0.000000
  70
    32
  0
VERTEX
  8
0
  5
71B
 10
2.22227
 20
1.66298
 30
0.000000
  70
    32
  0
VERTEX
  8
0
  5
71C
 10
2.22087
 20
1.66327
 30
0.000000
  70
    32
  0
VERTEX
  8
0
  5
71D
 10
2.21945
 20
1.66353
 30
0.000000
  70
    32
  0
VERTEX
  8
0
  5
71E
 10
2.21804
 20
1.66378
 30
0.000000
  70
    32
  0
VERTEX
  8
0
  5
71F
 10
2.21662
 20
1.66400
 30
0.000000
  70
    32
  0
VERTEX
  8
0
  5
720
 10
2.21520
 20
1.66420
 30
0.000000
  70
    32
  0
VERTEX
  8
0
  5
721
 10
2.21377
 20
1.66439
 30
0.000000
  70
    32
  0
VERTEX
  8
0
  5
722
 10
2.21234
 20
1.66455
 30
0.000000
  70
    32
  0
VERTEX
  8
0
  5
723
 10
2.21091
 20
1.66469
 30
0.000000
  70
    32
  0
VERTEX
  8
0
  5
724
 10
2.20947
 20
1.66481
 30
0.000000
  70
    32
  0
VERTEX
  8
0
  5
725
 10
2.20803
 20
1.66491
 30
0.000000
  70
    32
  0
VERTEX
  8
0
  5
726
 10
2.20659
 20
1.66498
 30
0.000000
  70
    32
  0
VERTEX
  8
0
  5
727
 10
2.20515
 20
1.66504
 30
0.000000
  70
    32
  0
VERTEX
  8
0
  5
728
 10
2.20371
 20
1.66507
 30
0.000000
  70
    32
  0
VERTEX
  8
0
  5
729
 10
2.20226
 20
1.66508
 30
0.000000
  70
    32
  0
VERTEX
  8
0
  5
72A
 10
2.20082
 20
1.66507
 30
0.000000
  70
    32
  0
VERTEX
  8
0
  5
72B
 10
2.19937
 20
1.66504
 30
0.000000
  70
    32
  0
VERTEX
  8
0
  5
72C
 10
2.19792
 20
1.66499
 30
0.000000
  70
    32
  0
VERTEX
  8
0
  5
72D
 10
2.19648
 20
1.66492
 30
0.000000
  70
    32
  0
VERTEX
  8
0
  5
72E
 10
2.19503
 20
1.66482
 30
0.000000
  70
    32
  0
VERTEX
  8
0
  5
72F
 10
2.19358
 20
1.66470
 30
0.000000
  70
    32
  0
VERTEX
  8
0
  5
730
 10
2.19213
 20
1.66456
 30
0.000000
  70
    32
  0
VERTEX
  8
0
  5
731
 10
2.19069
 20
1.66440
 30
0.000000
  70
    32
  0
VERTEX
  8
0
  5
732
 10
2.18924
 20
1.66422
 30
0.000000
  70
    32
  0
VERTEX
  8
0
  5
733
 10
2.18779
 20
1.66401
 30
0.000000
  70
    32
  0
VERTEX
  8
0
  5
734
 10
2.18635
 20
1.66379
 30
0.000000
  70
    32
  0
VERTEX
  8
0
  5
735
 10
2.18491
 20
1.66354
 30
0.000000
  70
    32
  0
VERTEX
  8
0
  5
736
 10
2.18347
 20
1.66326
 30
0.000000
  70
    32
  0
VERTEX
  8
0
  5
737
 10
2.18203
 20
1.66297
 30
0.000000
  70
    32
  0
VERTEX
  8
0
  5
738
 10
2.18059
 20
1.66265
 30
0.000000
  70
    32
  0
VERTEX
  8
0
  5
739
 10
2.17916
 20
1.66231
 30
0.000000
  70
    32
  0
VERTEX
  8
0
  5
73A
 10
2.17773
 20
1.66195
 30
0.000000
  70
    32
  0
VERTEX
  8
0
  5
73B
 10
2.17630
 20
1.66156
 30
0.000000
  70
    32
  0
VERTEX
  8
0
  5
73C
 10
2.17487
 20
1.66116
 30
0.000000
  70
    32
  0
VERTEX
  8
0
  5
73D
 10
2.17345
 20
1.66073
 30
0.000000
  70
    32
  0
VERTEX
  8
0
  5
73E
 10
2.17203
 20
1.66027
 30
0.000000
  70
    32
  0
VERTEX
  8
0
  5
73F
 10
2.17062
 20
1.65980
 30
0.000000
  70
    32
  0
VERTEX
  8
0
  5
740
 10
2.16921
 20
1.65930
 30
0.000000
  70
    32
  0
VERTEX
  8
0
  5
741
 10
2.16781
 20
1.65878
 30
0.000000
  70
    32
  0
VERTEX
  8
0
  5
742
 10
2.16641
 20
1.65823
 30
0.000000
  70
    32
  0
VERTEX
  8
0
  5
743
 10
2.16501
 20
1.65766
 30
0.000000
  70
    32
  0
VERTEX
  8
0
  5
744
 10
2.16362
 20
1.65707
 30
0.000000
  70
    32
  0
VERTEX
  8
0
  5
745
 10
2.16224
 20
1.65646
 30
0.000000
  70
    32
  0
VERTEX
  8
0
  5
746
 10
2.16086
 20
1.65582
 30
0.000000
  70
    32
  0
VERTEX
  8
0
  5
747
 10
2.15948
 20
1.65516
 30
0.000000
  70
    32
  0
VERTEX
  8
0
  5
748
 10
2.15812
 20
1.65447
 30
0.000000
  70
    32
  0
VERTEX
  8
0
  5
749
 10
2.15676
 20
1.65376
 30
0.000000
  70
    32
  0
VERTEX
  8
0
  5
74A
 10
2.15540
 20
1.65303
 30
0.000000
  70
    32
  0
VERTEX
  8
0
  5
74B
 10
2.15405
 20
1.65227
 30
0.000000
  70
    32
  0
VERTEX
  8
0
  5
74C
 10
2.15321
 20
1.65178
 30
0.000000
  70
    32
  0
VERTEX
  8
0
  5
74D
 10
2.15254
 20
1.65137
 30
0.000000
  70
    32
  0
VERTEX
  8
0
  5
74E
 10
2.15188
 20
1.65095
 30
0.000000
  70
    32
  0
VERTEX
  8
0
  5
74F
 10
2.15124
 20
1.65052
 30
0.000000
  70
    32
  0
VERTEX
  8
0
  5
750
 10
2.15061
 20
1.65008
 30
0.000000
  70
    32
  0
VERTEX
  8
0
  5
751
 10
2.14999
 20
1.64963
 30
0.000000
  70
    32
  0
VERTEX
  8
0
  5
752
 10
2.14939
 20
1.64917
 30
0.000000
  70
    32
  0
VERTEX
  8
0
  5
753
 10
2.14879
 20
1.64869
 30
0.000000
  70
    32
  0
VERTEX
  8
0
  5
754
 10
2.14821
 20
1.64821
 30
0.000000
  70
    32
  0
VERTEX
  8
0
  5
755
 10
2.14763
 20
1.64772
 30
0.000000
  70
    32
  0
VERTEX
  8
0
  5
756
 10
2.14707
 20
1.64722
 30
0.000000
  70
    32
  0
VERTEX
  8
0
  5
757
 10
2.14652
 20
1.64671
 30
0.000000
  70
    32
  0
VERTEX
  8
0
  5
758
 10
2.14598
 20
1.64619
 30
0.000000
  70
    32
  0
VERTEX
  8
0
  5
759
 10
2.14545
 20
1.64567
 30
0.000000
  70
    32
  0
VERTEX
  8
0
  5
75A
 10
2.14493
 20
1.64513
 30
0.000000
  70
    32
  0
VERTEX
  8
0
  5
75B
 10
2.14442
 20
1.64459
 30
0.000000
  70
    32
  0
VERTEX
  8
0
  5
75C
 10
2.14391
 20
1.64404
 30
0.000000
  70
    32
  0
VERTEX
  8
0
  5
75D
 10
2.14342
 20
1.64348
 30
0.000000
  70
    32
  0
VERTEX
  8
0
  5
75E
 10
2.14294
 20
1.64292
 30
0.000000
  70
    32
  0
VERTEX
  8
0
  5
75F
 10
2.14246
 20
1.64234
 30
0.000000
  70
    32
  0
VERTEX
  8
0
  5
760
 10
2.14199
 20
1.64176
 30
0.000000
  70
    32
  0
VERTEX
  8
0
  5
761
 10
2.14153
 20
1.64118
 30
0.000000
  70
    32
  0
VERTEX
  8
0
  5
762
 10
2.14108
 20
1.64058
 30
0.000000
  70
    32
  0
VERTEX
  8
0
  5
763
 10
2.14064
 20
1.63998
 30
0.000000
  70
    32
  0
VERTEX
  8
0
  5
764
 10
2.14020
 20
1.63938
 30
0.000000
  70
    32
  0
VERTEX
  8
0
  5
765
 10
2.13977
 20
1.63877
 30
0.000000
  70
    32
  0
VERTEX
  8
0
  5
766
 10
2.13935
 20
1.63815
 30
0.000000
  70
    32
  0
VERTEX
  8
0
  5
767
 10
2.13894
 20
1.63753
 30
0.000000
  70
    32
  0
VERTEX
  8
0
  5
768
 10
2.13853
 20
1.63690
 30
0.000000
  70
    32
  0
VERTEX
  8
0
  5
769
 10
2.13812
 20
1.63627
 30
0.000000
  70
    32
  0
VERTEX
  8
0
  5
76A
 10
2.13773
 20
1.63563
 30
0.000000
  70
    32
  0
VERTEX
  8
0
  5
76B
 10
2.13734
 20
1.63499
 30
0.000000
  70
    32
  0
VERTEX
  8
0
  5
76C
 10
2.13695
 20
1.63434
 30
0.000000
  70
    32
  0
VERTEX
  8
0
  5
76D
 10
2.13657
 20
1.63369
 30
0.000000
  70
    32
  0
VERTEX
  8
0
  5
76E
 10
2.13619
 20
1.63304
 30
0.000000
  70
    32
  0
VERTEX
  8
0
  5
76F
 10
2.13582
 20
1.63238
 30
0.000000
  70
    32
  0
VERTEX
  8
0
  5
770
 10
2.13546
 20
1.63172
 30
0.000000
  70
    32
  0
VERTEX
  8
0
  5
771
 10
2.13509
 20
1.63106
 30
0.000000
  70
    32
  0
VERTEX
  8
0
  5
772
 10
2.13474
 20
1.63039
 30
0.000000
  70
    32
  0
VERTEX
  8
0
  5
773
 10
2.13438
 20
1.62972
 30
0.000000
  70
    32
  0
VERTEX
  8
0
  5
774
 10
2.13403
 20
1.62905
 30
0.000000
  70
    32
  0
VERTEX
  8
0
  5
775
 10
2.13368
 20
1.62838
 30
0.000000
  70
    32
  0
VERTEX
  8
0
  5
776
 10
2.13334
 20
1.62770
 30
0.000000
  70
    32
  0
VERTEX
  8
0
  5
777
 10
2.13299
 20
1.62702
 30
0.000000
  70
    32
  0
VERTEX
  8
0
  5
778
 10
2.13265
 20
1.62634
 30
0.000000
  70
    32
  0
VERTEX
  8
0
  5
779
 10
2.13231
 20
1.62566
 30
0.000000
  70
    32
  0
VERTEX
  8
0
  5
77A
 10
2.13198
 20
1.62498
 30
0.000000
  70
    32
  0
VERTEX
  8
0
  5
77B
 10
2.13164
 20
1.62430
 30
0.000000
  70
    32
  0
VERTEX
  8
0
  5
77C
 10
2.13131
 20
1.62362
 30
0.000000
  70
    32
  0
VERTEX
  8
0
  5
77D
 10
2.13098
 20
1.62293
 30
0.000000
  70
    32
  0
VERTEX
  8
0
  5
77E
 10
2.13065
 20
1.62225
 30
0.000000
  70
    32
  0
VERTEX
  8
0
  5
77F
 10
2.13032
 20
1.62157
 30
0.000000
  70
    32
  0
VERTEX
  8
0
  5
780
 10
2.12999
 20
1.62088
 30
0.000000
  70
    32
  0
VERTEX
  8
0
  5
781
 10
2.12966
 20
1.62020
 30
0.000000
  70
    32
  0
VERTEX
  8
0
  5
782
 10
2.12933
 20
1.61952
 30
0.000000
  70
    32
  0
VERTEX
  8
0
  5
783
 10
2.12900
 20
1.61884
 30
0.000000
  70
    32
  0
VERTEX
  8
0
  5
784
 10
2.12867
 20
1.61816
 30
0.000000
  70
    32
  0
VERTEX
  8
0
  5
785
 10
2.12834
 20
1.61748
 30
0.000000
  70
    32
  0
VERTEX
  8
0
  5
786
 10
2.12801
 20
1.61680
 30
0.000000
  70
    32
  0
VERTEX
  8
0
  5
787
 10
2.12768
 20
1.61612
 30
0.000000
  70
    32
  0
VERTEX
  8
0
  5
788
 10
2.12735
 20
1.61545
 30
0.000000
  70
    32
  0
VERTEX
  8
0
  5
789
 10
2.12701
 20
1.61478
 30
0.000000
  70
    32
  0
VERTEX
  8
0
  5
78A
 10
2.12667
 20
1.61411
 30
0.000000
  70
    32
  0
VERTEX
  8
0
  5
78B
 10
2.12633
 20
1.61345
 30
0.000000
  70
    32
  0
VERTEX
  8
0
  5
78C
 10
2.12599
 20
1.61278
 30
0.000000
  70
    32
  0
VERTEX
  8
0
  5
78D
 10
2.12564
 20
1.61212
 30
0.000000
  70
    32
  0
VERTEX
  8
0
  5
78E
 10
2.12530
 20
1.61147
 30
0.000000
  70
    32
  0
VERTEX
  8
0
  5
78F
 10
2.12495
 20
1.61082
 30
0.000000
  70
    32
  0
VERTEX
  8
0
  5
790
 10
2.12459
 20
1.61017
 30
0.000000
  70
    32
  0
VERTEX
  8
0
  5
791
 10
2.12423
 20
1.60952
 30
0.000000
  70
    32
  0
VERTEX
  8
0
  5
792
 10
2.12387
 20
1.60888
 30
0.000000
  70
    32
  0
VERTEX
  8
0
  5
793
 10
2.12350
 20
1.60825
 30
0.000000
  70
    32
  0
VERTEX
  8
0
  5
794
 10
2.12313
 20
1.60762
 30
0.000000
  70
    32
  0
VERTEX
  8
0
  5
795
 10
2.12276
 20
1.60699
 30
0.000000
  70
    32
  0
VERTEX
  8
0
  5
796
 10
2.12238
 20
1.60637
 30
0.000000
  70
    32
  0
VERTEX
  8
0
  5
797
 10
2.12199
 20
1.60575
 30
0.000000
  70
    32
  0
VERTEX
  8
0
  5
798
 10
2.12160
 20
1.60514
 30
0.000000
  70
    32
  0
VERTEX
  8
0
  5
799
 10
2.12120
 20
1.60454
 30
0.000000
  70
    32
  0
VERTEX
  8
0
  5
79A
 10
2.12080
 20
1.60394
 30
0.000000
  70
    32
  0
VERTEX
  8
0
  5
79B
 10
2.12039
 20
1.60335
 30
0.000000
  70
    32
  0
VERTEX
  8
0
  5
79C
 10
2.11998
 20
1.60277
 30
0.000000
  70
    32
  0
VERTEX
  8
0
  5
79D
 10
2.11955
 20
1.60219
 30
0.000000
  70
    32
  0
VERTEX
  8
0
  5
79E
 10
2.11912
 20
1.60162
 30
0.000000
  70
    32
  0
VERTEX
  8
0
  5
79F
 10
2.11869
 20
1.60106
 30
0.000000
  70
    32
  0
VERTEX
  8
0
  5
7A0
 10
2.11825
 20
1.60050
 30
0.000000
  70
    32
  0
VERTEX
  8
0
  5
7A1
 10
2.11779
 20
1.59995
 30
0.000000
  70
    32
  0
VERTEX
  8
0
  5
7A2
 10
2.11734
 20
1.59941
 30
0.000000
  70
    32
  0
VERTEX
  8
0
  5
7A3
 10
2.11687
 20
1.59888
 30
0.000000
  70
    32
  0
VERTEX
  8
0
  5
7A4
 10
2.11639
 20
1.59836
 30
0.000000
  70
    32
  0
VERTEX
  8
0
  5
7A5
 10
2.11591
 20
1.59784
 30
0.000000
  70
    32
  0
VERTEX
  8
0
  5
7A6
 10
2.11542
 20
1.59733
 30
0.000000
  70
    32
  0
VERTEX
  8
0
  5
7A7
 10
2.11491
 20
1.59684
 30
0.000000
  70
    32
  0
VERTEX
  8
0
  5
7A8
 10
2.11440
 20
1.59635
 30
0.000000
  70
    32
  0
VERTEX
  8
0
  5
7A9
 10
2.11388
 20
1.59587
 30
0.000000
  70
    32
  0
VERTEX
  8
0
  5
7AA
 10
2.11335
 20
1.59540
 30
0.000000
  70
    32
  0
VERTEX
  8
0
  5
7AB
 10
2.11281
 20
1.59494
 30
0.000000
  70
    32
  0
VERTEX
  8
0
  5
7AC
 10
2.11226
 20
1.59449
 30
0.000000
  70
    32
  0
VERTEX
  8
0
  5
7AD
 10
2.11170
 20
1.59406
 30
0.000000
  70
    32
  0
VERTEX
  8
0
  5
7AE
 10
2.11113
 20
1.59363
 30
0.000000
  70
    32
  0
VERTEX
  8
0
  5
7AF
 10
2.11054
 20
1.59321
 30
0.000000
  70
    32
  0
VERTEX
  8
0
  5
7B0
 10
2.10995
 20
1.59280
 30
0.000000
  70
    32
  0
VERTEX
  8
0
  5
7B1
 10
2.10934
 20
1.59241
 30
0.000000
  70
    32
  0
VERTEX
  8
0
  5
7B2
 10
2.10872
 20
1.59203
 30
0.000000
  70
    32
  0
VERTEX
  8
0
  5
7B3
 10
2.10809
 20
1.59166
 30
0.000000
  70
    32
  0
SEQEND
  8
0
  5
7B4
  0
POLYLINE
  5
267
  8
0
 62
     1
 66
     1
 10
0.0
 20
0.0
 30
0.0
  0
VERTEX
  5
2C5
  8
0
 62
     1
 10
2.4375314256876739
 20
1.692642716179084
 30
0.0
  0
VERTEX
  5
2C6
  8
0
 62
     1
 10
1.8395911477704141
 20
0.6569983109740863
 30
0.0
  0
VERTEX
  5
2C7
  8
0
 62
     1
 10
1.2416369812432251
 20
1.692616327451969
 30
0.0
  0
VERTEX
  5
2C8
  8
0
 62
     1
 10
2.4375314256876739
 20
1.692642716179084
 30
0.0
  0
SEQEND
  5
2C9
  8
0
 62
     1
  0
POLYLINE
  5
269
  8
0
 66
     1
 10
0.0
 20
0.0
 30
0.0
 70
     1
  0
VERTEX
  5
2CA
  8
0
 10
0.8395865182337729
 20
2.3474191182017128
 30
0.0
  0
VERTEX
  5
2CB
  8
0
 10
2.8395865182337721
 20
2.3474191182017128
 30
0.0
  0
VERTEX
  5
2CC
  8
0
 10
2.8395865182337721
 20
0.3474191182017137
 30
0.0
  0
VERTEX
  5
2CD
  8
0
 10
0.8395865182337729
 20
0.3474191182017137
 30
0.0
  0
SEQEND
  5
2CE
  8
0
  0
ENDSEC
  0
EOF
